%TF.GenerationSoftware,KiCad,Pcbnew,5.1.6-c6e7f7d~87~ubuntu20.04.1*%
%TF.CreationDate,2020-08-27T02:02:17+02:00*%
%TF.ProjectId,WARBL2.2,57415242-4c32-42e3-922e-6b696361645f,2.1*%
%TF.SameCoordinates,Original*%
%TF.FileFunction,Legend,Top*%
%TF.FilePolarity,Positive*%
%FSLAX46Y46*%
G04 Gerber Fmt 4.6, Leading zero omitted, Abs format (unit mm)*
G04 Created by KiCad (PCBNEW 5.1.6-c6e7f7d~87~ubuntu20.04.1) date 2020-08-27 02:02:17*
%MOMM*%
%LPD*%
G01*
G04 APERTURE LIST*
%ADD10C,0.200000*%
%ADD11C,0.190500*%
%ADD12C,0.300000*%
%ADD13C,0.150000*%
%ADD14C,0.100000*%
%ADD15C,0.127000*%
%ADD16C,0.120000*%
%ADD17C,0.152400*%
%ADD18C,0.254000*%
G04 APERTURE END LIST*
D10*
X129834781Y-92913200D02*
G75*
G03*
X129834781Y-92913200I-91581J0D01*
G01*
D11*
X76669174Y-91233534D02*
X76233745Y-91233534D01*
X76451460Y-91233534D02*
X76451460Y-90471534D01*
X76378888Y-90580391D01*
X76306317Y-90652962D01*
X76233745Y-90689248D01*
D12*
X108750000Y-98478571D02*
X109107142Y-99978571D01*
X109392857Y-98907142D01*
X109678571Y-99978571D01*
X110035714Y-98478571D01*
X110535714Y-99550000D02*
X111250000Y-99550000D01*
X110392857Y-99978571D02*
X110892857Y-98478571D01*
X111392857Y-99978571D01*
X112750000Y-99978571D02*
X112250000Y-99264285D01*
X111892857Y-99978571D02*
X111892857Y-98478571D01*
X112464285Y-98478571D01*
X112607142Y-98550000D01*
X112678571Y-98621428D01*
X112750000Y-98764285D01*
X112750000Y-98978571D01*
X112678571Y-99121428D01*
X112607142Y-99192857D01*
X112464285Y-99264285D01*
X111892857Y-99264285D01*
X113892857Y-99192857D02*
X114107142Y-99264285D01*
X114178571Y-99335714D01*
X114250000Y-99478571D01*
X114250000Y-99692857D01*
X114178571Y-99835714D01*
X114107142Y-99907142D01*
X113964285Y-99978571D01*
X113392857Y-99978571D01*
X113392857Y-98478571D01*
X113892857Y-98478571D01*
X114035714Y-98550000D01*
X114107142Y-98621428D01*
X114178571Y-98764285D01*
X114178571Y-98907142D01*
X114107142Y-99050000D01*
X114035714Y-99121428D01*
X113892857Y-99192857D01*
X113392857Y-99192857D01*
X115607142Y-99978571D02*
X114892857Y-99978571D01*
X114892857Y-98478571D01*
X117178571Y-98621428D02*
X117250000Y-98550000D01*
X117392857Y-98478571D01*
X117750000Y-98478571D01*
X117892857Y-98550000D01*
X117964285Y-98621428D01*
X118035714Y-98764285D01*
X118035714Y-98907142D01*
X117964285Y-99121428D01*
X117107142Y-99978571D01*
X118035714Y-99978571D01*
X118678571Y-99835714D02*
X118750000Y-99907142D01*
X118678571Y-99978571D01*
X118607142Y-99907142D01*
X118678571Y-99835714D01*
X118678571Y-99978571D01*
X119250000Y-98478571D02*
X120178571Y-98478571D01*
X119678571Y-99050000D01*
X119892857Y-99050000D01*
X120035714Y-99121428D01*
X120107142Y-99192857D01*
X120178571Y-99335714D01*
X120178571Y-99692857D01*
X120107142Y-99835714D01*
X120035714Y-99907142D01*
X119892857Y-99978571D01*
X119464285Y-99978571D01*
X119321428Y-99907142D01*
X119250000Y-99835714D01*
X122821428Y-99835714D02*
X122750000Y-99907142D01*
X122535714Y-99978571D01*
X122392857Y-99978571D01*
X122178571Y-99907142D01*
X122035714Y-99764285D01*
X121964285Y-99621428D01*
X121892857Y-99335714D01*
X121892857Y-99121428D01*
X121964285Y-98835714D01*
X122035714Y-98692857D01*
X122178571Y-98550000D01*
X122392857Y-98478571D01*
X122535714Y-98478571D01*
X122750000Y-98550000D01*
X122821428Y-98621428D01*
X123464285Y-99978571D02*
X123464285Y-98478571D01*
X124107142Y-99978571D02*
X124107142Y-99192857D01*
X124035714Y-99050000D01*
X123892857Y-98978571D01*
X123678571Y-98978571D01*
X123535714Y-99050000D01*
X123464285Y-99121428D01*
X125464285Y-99978571D02*
X125464285Y-99192857D01*
X125392857Y-99050000D01*
X125250000Y-98978571D01*
X124964285Y-98978571D01*
X124821428Y-99050000D01*
X125464285Y-99907142D02*
X125321428Y-99978571D01*
X124964285Y-99978571D01*
X124821428Y-99907142D01*
X124750000Y-99764285D01*
X124750000Y-99621428D01*
X124821428Y-99478571D01*
X124964285Y-99407142D01*
X125321428Y-99407142D01*
X125464285Y-99335714D01*
X126178571Y-99978571D02*
X126178571Y-98978571D01*
X126178571Y-99264285D02*
X126250000Y-99121428D01*
X126321428Y-99050000D01*
X126464285Y-98978571D01*
X126607142Y-98978571D01*
X127321428Y-99978571D02*
X127178571Y-99907142D01*
X127107142Y-99764285D01*
X127107142Y-98478571D01*
X128464285Y-99907142D02*
X128321428Y-99978571D01*
X128035714Y-99978571D01*
X127892857Y-99907142D01*
X127821428Y-99764285D01*
X127821428Y-99192857D01*
X127892857Y-99050000D01*
X128035714Y-98978571D01*
X128321428Y-98978571D01*
X128464285Y-99050000D01*
X128535714Y-99192857D01*
X128535714Y-99335714D01*
X127821428Y-99478571D01*
X129107142Y-99907142D02*
X129250000Y-99978571D01*
X129535714Y-99978571D01*
X129678571Y-99907142D01*
X129750000Y-99764285D01*
X129750000Y-99692857D01*
X129678571Y-99550000D01*
X129535714Y-99478571D01*
X129321428Y-99478571D01*
X129178571Y-99407142D01*
X129107142Y-99264285D01*
X129107142Y-99192857D01*
X129178571Y-99050000D01*
X129321428Y-98978571D01*
X129535714Y-98978571D01*
X129678571Y-99050000D01*
X131607142Y-99978571D02*
X131535714Y-99978571D01*
X131392857Y-99907142D01*
X131178571Y-99692857D01*
X130821428Y-99264285D01*
X130678571Y-99050000D01*
X130607142Y-98835714D01*
X130607142Y-98692857D01*
X130678571Y-98550000D01*
X130821428Y-98478571D01*
X130892857Y-98478571D01*
X131035714Y-98550000D01*
X131107142Y-98692857D01*
X131107142Y-98764285D01*
X131035714Y-98907142D01*
X130964285Y-98978571D01*
X130535714Y-99264285D01*
X130464285Y-99335714D01*
X130392857Y-99478571D01*
X130392857Y-99692857D01*
X130464285Y-99835714D01*
X130535714Y-99907142D01*
X130678571Y-99978571D01*
X130892857Y-99978571D01*
X131035714Y-99907142D01*
X131107142Y-99835714D01*
X131321428Y-99550000D01*
X131392857Y-99335714D01*
X131392857Y-99192857D01*
X133107142Y-99978571D02*
X132607142Y-99264285D01*
X132250000Y-99978571D02*
X132250000Y-98478571D01*
X132821428Y-98478571D01*
X132964285Y-98550000D01*
X133035714Y-98621428D01*
X133107142Y-98764285D01*
X133107142Y-98978571D01*
X133035714Y-99121428D01*
X132964285Y-99192857D01*
X132821428Y-99264285D01*
X132250000Y-99264285D01*
X134392857Y-99978571D02*
X134392857Y-99192857D01*
X134321428Y-99050000D01*
X134178571Y-98978571D01*
X133892857Y-98978571D01*
X133750000Y-99050000D01*
X134392857Y-99907142D02*
X134250000Y-99978571D01*
X133892857Y-99978571D01*
X133750000Y-99907142D01*
X133678571Y-99764285D01*
X133678571Y-99621428D01*
X133750000Y-99478571D01*
X133892857Y-99407142D01*
X134250000Y-99407142D01*
X134392857Y-99335714D01*
X135107142Y-98978571D02*
X135107142Y-100478571D01*
X135107142Y-99050000D02*
X135250000Y-98978571D01*
X135535714Y-98978571D01*
X135678571Y-99050000D01*
X135750000Y-99121428D01*
X135821428Y-99264285D01*
X135821428Y-99692857D01*
X135750000Y-99835714D01*
X135678571Y-99907142D01*
X135535714Y-99978571D01*
X135250000Y-99978571D01*
X135107142Y-99907142D01*
X136464285Y-99978571D02*
X136464285Y-98478571D01*
X137107142Y-99978571D02*
X137107142Y-99192857D01*
X137035714Y-99050000D01*
X136892857Y-98978571D01*
X136678571Y-98978571D01*
X136535714Y-99050000D01*
X136464285Y-99121428D01*
D13*
X228137300Y-98836900D02*
X228137300Y-98061900D01*
X235387300Y-91586900D02*
X235387300Y-92361900D01*
X228137300Y-91586900D02*
X228137300Y-92361900D01*
X235387300Y-98836900D02*
X234612300Y-98836900D01*
X235387300Y-91586900D02*
X234612300Y-91586900D01*
X228137300Y-91586900D02*
X228912300Y-91586900D01*
X228137300Y-98836900D02*
X228912300Y-98836900D01*
D14*
X244248098Y-92593676D02*
X244048098Y-92593676D01*
X244248098Y-91593676D02*
X244048098Y-91593676D01*
X245378098Y-92033676D02*
G75*
G03*
X245378098Y-92133676I0J-50000D01*
G01*
X245378098Y-92133676D02*
G75*
G03*
X245378098Y-92033676I0J50000D01*
G01*
D15*
X239673098Y-92178676D02*
X239673098Y-93878676D01*
X242673098Y-93878676D02*
X242673098Y-92178676D01*
D12*
X242265098Y-90439676D02*
G75*
G03*
X242265098Y-90439676I-100000J0D01*
G01*
D14*
X85159660Y-92930820D02*
X84819660Y-92930820D01*
X79229660Y-92920820D02*
X79229660Y-93420820D01*
X79239660Y-92920820D02*
X79739660Y-92920820D01*
X85539660Y-93800820D02*
X85539660Y-93300820D01*
X85539660Y-93290820D02*
X85179660Y-92930820D01*
X85539660Y-97590820D02*
X85039660Y-97590820D01*
X85539660Y-97590820D02*
X85539660Y-97090820D01*
X79239660Y-97590820D02*
X79739660Y-97590820D01*
X79239660Y-97590820D02*
X79239660Y-97090820D01*
D16*
X244448377Y-97783676D02*
X244122819Y-97783676D01*
X244448377Y-98803676D02*
X244122819Y-98803676D01*
X239097819Y-100503676D02*
X239423377Y-100503676D01*
X239097819Y-99483676D02*
X239423377Y-99483676D01*
D17*
X241849298Y-100793976D02*
G75*
G03*
X241849298Y-100793976I-76200J0D01*
G01*
D14*
X236923098Y-89393676D02*
X238223098Y-89393676D01*
X236923098Y-92593676D02*
X238223098Y-92593676D01*
D10*
X236173098Y-89693676D02*
X236173098Y-89693676D01*
X236173098Y-89893676D02*
X236173098Y-89893676D01*
X236173098Y-89693676D02*
G75*
G03*
X236173098Y-89893676I0J-100000D01*
G01*
X236173098Y-89893676D02*
G75*
G03*
X236173098Y-89693676I0J100000D01*
G01*
D16*
X237897819Y-97783676D02*
X238223377Y-97783676D01*
X237897819Y-98803676D02*
X238223377Y-98803676D01*
X237897819Y-96183676D02*
X238223377Y-96183676D01*
X237897819Y-97203676D02*
X238223377Y-97203676D01*
X253318098Y-99943676D02*
X255218098Y-99943676D01*
X249418098Y-99943676D02*
X251418098Y-99943676D01*
X253318098Y-90543676D02*
X255218098Y-90543676D01*
X249418098Y-90543676D02*
X251418098Y-90543676D01*
X255218098Y-99943676D02*
X255218098Y-90543676D01*
X244110319Y-93183676D02*
X244435877Y-93183676D01*
X244110319Y-94203676D02*
X244435877Y-94203676D01*
X244110319Y-99383676D02*
X244435877Y-99383676D01*
X244110319Y-100403676D02*
X244435877Y-100403676D01*
D10*
X120272000Y-96452540D02*
X120272000Y-94052540D01*
D16*
X238173098Y-94793676D02*
X238173098Y-94093676D01*
X239373098Y-94093676D02*
X239373098Y-94793676D01*
X221723098Y-90993676D02*
X222423098Y-90993676D01*
X222423098Y-92193676D02*
X221723098Y-92193676D01*
D18*
X240373098Y-95743676D02*
G75*
G03*
X240373098Y-95743676I-125000J0D01*
G01*
D16*
X110906940Y-91413676D02*
X111906940Y-91413676D01*
X111906940Y-92773676D02*
X110906940Y-92773676D01*
X234073098Y-90993676D02*
X233373098Y-90993676D01*
X233373098Y-89793676D02*
X234073098Y-89793676D01*
X233473098Y-100593676D02*
X232773098Y-100593676D01*
X232773098Y-99393676D02*
X233473098Y-99393676D01*
X77673098Y-92843676D02*
X77673098Y-92143676D01*
X78873098Y-92143676D02*
X78873098Y-92843676D01*
X130217800Y-93942380D02*
X129217800Y-93942380D01*
X129217800Y-93942380D02*
X129217800Y-96042380D01*
X130217800Y-93942380D02*
X130217800Y-96042380D01*
X241673098Y-91073676D02*
X240673098Y-91073676D01*
X240673098Y-89713676D02*
X241673098Y-89713676D01*
X127553098Y-92593676D02*
X127553098Y-93593676D01*
X126193098Y-93593676D02*
X126193098Y-92593676D01*
X81956020Y-91013676D02*
X82956020Y-91013676D01*
X82956020Y-92373676D02*
X81956020Y-92373676D01*
X93823098Y-92373676D02*
X92823098Y-92373676D01*
X92823098Y-91013676D02*
X93823098Y-91013676D01*
X140793098Y-95793676D02*
X140793098Y-94793676D01*
X142153098Y-94793676D02*
X142153098Y-95793676D01*
X151792220Y-92469080D02*
X151792220Y-93469080D01*
X150432220Y-93469080D02*
X150432220Y-92469080D01*
X181993098Y-95593676D02*
X181993098Y-94593676D01*
X183353098Y-94593676D02*
X183353098Y-95593676D01*
X205973098Y-95973676D02*
X204973098Y-95973676D01*
X204973098Y-94613676D02*
X205973098Y-94613676D01*
X218952000Y-96260200D02*
X217952000Y-96260200D01*
X217952000Y-94900200D02*
X218952000Y-94900200D01*
X122753098Y-94393676D02*
X122753098Y-95393676D01*
X121393098Y-95393676D02*
X121393098Y-94393676D01*
X226623098Y-99693676D02*
X225923098Y-99693676D01*
X225923098Y-98493676D02*
X226623098Y-98493676D01*
X165445820Y-94486180D02*
X166445820Y-94486180D01*
X166445820Y-95846180D02*
X165445820Y-95846180D01*
X236673098Y-94793676D02*
X236673098Y-94093676D01*
X237873098Y-94093676D02*
X237873098Y-94793676D01*
X235873098Y-99393676D02*
X236573098Y-99393676D01*
X236573098Y-100593676D02*
X235873098Y-100593676D01*
X227473098Y-92043676D02*
X227473098Y-92743676D01*
X226273098Y-92743676D02*
X226273098Y-92043676D01*
X229673098Y-99393676D02*
X230373098Y-99393676D01*
X230373098Y-100593676D02*
X229673098Y-100593676D01*
D13*
X208684761Y-96578333D02*
X208732380Y-96435476D01*
X208732380Y-96197380D01*
X208684761Y-96102142D01*
X208637142Y-96054523D01*
X208541904Y-96006904D01*
X208446666Y-96006904D01*
X208351428Y-96054523D01*
X208303809Y-96102142D01*
X208256190Y-96197380D01*
X208208571Y-96387857D01*
X208160952Y-96483095D01*
X208113333Y-96530714D01*
X208018095Y-96578333D01*
X207922857Y-96578333D01*
X207827619Y-96530714D01*
X207780000Y-96483095D01*
X207732380Y-96387857D01*
X207732380Y-96149761D01*
X207780000Y-96006904D01*
X207732380Y-95673571D02*
X208732380Y-95435476D01*
X208018095Y-95245000D01*
X208732380Y-95054523D01*
X207732380Y-94816428D01*
X207732380Y-94530714D02*
X207732380Y-93911666D01*
X208113333Y-94245000D01*
X208113333Y-94102142D01*
X208160952Y-94006904D01*
X208208571Y-93959285D01*
X208303809Y-93911666D01*
X208541904Y-93911666D01*
X208637142Y-93959285D01*
X208684761Y-94006904D01*
X208732380Y-94102142D01*
X208732380Y-94387857D01*
X208684761Y-94483095D01*
X208637142Y-94530714D01*
X136694761Y-96578333D02*
X136742380Y-96435476D01*
X136742380Y-96197380D01*
X136694761Y-96102142D01*
X136647142Y-96054523D01*
X136551904Y-96006904D01*
X136456666Y-96006904D01*
X136361428Y-96054523D01*
X136313809Y-96102142D01*
X136266190Y-96197380D01*
X136218571Y-96387857D01*
X136170952Y-96483095D01*
X136123333Y-96530714D01*
X136028095Y-96578333D01*
X135932857Y-96578333D01*
X135837619Y-96530714D01*
X135790000Y-96483095D01*
X135742380Y-96387857D01*
X135742380Y-96149761D01*
X135790000Y-96006904D01*
X135742380Y-95673571D02*
X136742380Y-95435476D01*
X136028095Y-95245000D01*
X136742380Y-95054523D01*
X135742380Y-94816428D01*
X135742380Y-93959285D02*
X135742380Y-94435476D01*
X136218571Y-94483095D01*
X136170952Y-94435476D01*
X136123333Y-94340238D01*
X136123333Y-94102142D01*
X136170952Y-94006904D01*
X136218571Y-93959285D01*
X136313809Y-93911666D01*
X136551904Y-93911666D01*
X136647142Y-93959285D01*
X136694761Y-94006904D01*
X136742380Y-94102142D01*
X136742380Y-94340238D01*
X136694761Y-94435476D01*
X136647142Y-94483095D01*
X189202961Y-96578333D02*
X189250580Y-96435476D01*
X189250580Y-96197380D01*
X189202961Y-96102142D01*
X189155342Y-96054523D01*
X189060104Y-96006904D01*
X188964866Y-96006904D01*
X188869628Y-96054523D01*
X188822009Y-96102142D01*
X188774390Y-96197380D01*
X188726771Y-96387857D01*
X188679152Y-96483095D01*
X188631533Y-96530714D01*
X188536295Y-96578333D01*
X188441057Y-96578333D01*
X188345819Y-96530714D01*
X188298200Y-96483095D01*
X188250580Y-96387857D01*
X188250580Y-96149761D01*
X188298200Y-96006904D01*
X188250580Y-95673571D02*
X189250580Y-95435476D01*
X188536295Y-95245000D01*
X189250580Y-95054523D01*
X188250580Y-94816428D01*
X188583914Y-94006904D02*
X189250580Y-94006904D01*
X188202961Y-94245000D02*
X188917247Y-94483095D01*
X188917247Y-93864047D01*
X168781361Y-96578333D02*
X168828980Y-96435476D01*
X168828980Y-96197380D01*
X168781361Y-96102142D01*
X168733742Y-96054523D01*
X168638504Y-96006904D01*
X168543266Y-96006904D01*
X168448028Y-96054523D01*
X168400409Y-96102142D01*
X168352790Y-96197380D01*
X168305171Y-96387857D01*
X168257552Y-96483095D01*
X168209933Y-96530714D01*
X168114695Y-96578333D01*
X168019457Y-96578333D01*
X167924219Y-96530714D01*
X167876600Y-96483095D01*
X167828980Y-96387857D01*
X167828980Y-96149761D01*
X167876600Y-96006904D01*
X167828980Y-95673571D02*
X168828980Y-95435476D01*
X168114695Y-95245000D01*
X168828980Y-95054523D01*
X167828980Y-94816428D01*
X167924219Y-94483095D02*
X167876600Y-94435476D01*
X167828980Y-94340238D01*
X167828980Y-94102142D01*
X167876600Y-94006904D01*
X167924219Y-93959285D01*
X168019457Y-93911666D01*
X168114695Y-93911666D01*
X168257552Y-93959285D01*
X168828980Y-94530714D01*
X168828980Y-93911666D01*
M02*
