M48
; DRILL file {KiCad 5.1.6-c6e7f7d~87~ubuntu20.04.1} date Fri Aug 28 00:20:13 2020
; FORMAT={-:-/ absolute / inch / decimal}
; #@! TF.CreationDate,2020-08-28T00:20:13+02:00
; #@! TF.GenerationSoftware,Kicad,Pcbnew,5.1.6-c6e7f7d~87~ubuntu20.04.1
; #@! TF.FileFunction,Plated,1,4,PTH
FMAT,2
INCH
T1C0.0079
T2C0.0118
T3C0.0157
T4C0.0236
T5C0.0295
T6C0.0299
T7C0.0394
T8C0.0890
%
G90
G05
T1
X3.0422Y-3.6809
X3.0816Y-3.9092
X5.1446Y-3.6466
X5.4438Y-3.9385
X5.4451Y-3.9144
X5.8346Y-3.9213
X5.9055Y-3.9123
X6.3178Y-3.9171
X6.7745Y-3.8541
X7.2391Y-3.9123
X7.5856Y-3.6494
X8.3493Y-3.6494
X8.6722Y-3.61
X8.806Y-3.5901
X8.9005Y-3.6021
X8.9005Y-3.7517
X8.9602Y-3.6706
X9.0422Y-3.5785
X9.0659Y-3.5706
X9.0659Y-3.9015
X9.0878Y-3.908
X9.0992Y-3.7738
X9.1052Y-3.5549
X9.1153Y-3.9169
X9.1237Y-3.8954
X9.1446Y-3.908
X9.1498Y-3.7738
X9.2034Y-3.6061
X9.2234Y-3.5875
X9.247Y-3.8777
X9.2706Y-3.7089
X9.2813Y-3.8473
X9.2852Y-3.6505
X9.2863Y-3.6887
X9.2983Y-3.6692
X9.4517Y-3.862
X9.4833Y-3.8936
X9.4894Y-3.9667
T2
X2.9871Y-3.5942
X3.1446Y-3.5785
X3.1932Y-3.6192
X3.6013Y-3.61
X3.7069Y-3.6762
X3.7745Y-3.7123
X4.121Y-3.8305
X4.121Y-3.9013
X4.247Y-3.6887
X4.3021Y-3.6257
X4.4803Y-3.8268
X4.5118Y-3.8268
X4.8819Y-3.7008
X4.9921Y-3.8346
X4.9921Y-3.9291
X5.063Y-3.6299
X5.1732Y-3.6142
X5.5068Y-3.8141
X5.5232Y-3.65
X5.7115Y-3.6021
X5.8926Y-3.6257
X5.9084Y-3.673
X6.215Y-3.8467
X6.2942Y-3.8462
X6.6328Y-3.7517
X6.6328Y-3.8383
X6.8454Y-3.7517
X6.9005Y-3.6336
X6.9005Y-3.8462
X7.1919Y-3.6651
X7.7194Y-3.6523
X7.7194Y-3.7596
X8.0709Y-3.8189
X8.1761Y-3.7517
X8.3572Y-3.8332
X8.4753Y-3.8147
X8.5698Y-3.7123
X8.773Y-3.6653
X9.0029Y-3.9013
X9.374Y-3.9016
X9.4871Y-3.9368
X9.524Y-3.757
X9.5856Y-3.8383
X9.6171Y-3.736
X9.6485Y-3.8186
X9.6879Y-3.6257
X9.7046Y-3.9258
X9.8255Y-3.7493
T3
X9.2745Y-3.6021
X9.2824Y-3.8816
X9.4989Y-3.7045
T5
X8.724Y-3.7084
X7.8538Y-3.7084
X5.2539Y-3.7082
X3.2929Y-3.7083
X4.3284Y-3.7085
X6.983Y-3.7086
X6.0302Y-3.7083
X3.5211Y-3.7084
T6
X6.0302Y-3.7914
X6.1302Y-3.7083
X6.1302Y-3.7914
X3.5211Y-3.7915
X3.6211Y-3.7084
X3.6211Y-3.7915
X4.3284Y-3.7916
X4.4284Y-3.7085
X4.4284Y-3.7916
X8.724Y-3.7915
X8.824Y-3.7084
X8.824Y-3.7915
X7.8538Y-3.7915
X7.9538Y-3.7084
X7.9538Y-3.7915
X6.983Y-3.7917
X7.083Y-3.7086
X7.083Y-3.7917
X5.2539Y-3.7913
X5.3539Y-3.7082
X5.3539Y-3.7913
X3.1929Y-3.7083
X3.1929Y-3.7914
X3.2929Y-3.7914
T7
X5.6626Y-3.7039
X5.6626Y-3.8039
X5.7626Y-3.7039
X5.7626Y-3.8039
X5.8626Y-3.7039
X5.8626Y-3.8039
T8
X7.3409Y-3.7498
X3.9838Y-3.7498
T4
G00X9.7495Y-3.5797
M15
G01X9.7928Y-3.5797
M16
G05
G00X9.7495Y-3.9198
M15
G01X9.7928Y-3.9198
M16
G05
G00X9.9239Y-3.5797
M15
G01X9.9476Y-3.5797
M16
G05
G00X9.9239Y-3.9198
M15
G01X9.9476Y-3.9198
M16
G05
T0
M30
