%TF.GenerationSoftware,KiCad,Pcbnew,5.1.6-c6e7f7d~87~ubuntu20.04.1*%
%TF.CreationDate,2020-08-28T00:20:09+02:00*%
%TF.ProjectId,WARBL2.2,57415242-4c32-42e3-922e-6b696361645f,2.1*%
%TF.SameCoordinates,Original*%
%TF.FileFunction,Legend,Bot*%
%TF.FilePolarity,Positive*%
%FSLAX46Y46*%
G04 Gerber Fmt 4.6, Leading zero omitted, Abs format (unit mm)*
G04 Created by KiCad (PCBNEW 5.1.6-c6e7f7d~87~ubuntu20.04.1) date 2020-08-28 00:20:09*
%MOMM*%
%LPD*%
G01*
G04 APERTURE LIST*
%ADD10C,0.152400*%
%ADD11C,0.127000*%
%ADD12C,0.300000*%
%ADD13C,0.100000*%
%ADD14C,0.120000*%
%ADD15C,0.015000*%
%ADD16C,0.150000*%
G04 APERTURE END LIST*
D10*
X114752685Y-90625828D02*
X114597866Y-91167695D01*
X114443047Y-90780647D01*
X114288228Y-91167695D01*
X114133409Y-90625828D01*
X113475428Y-91167695D02*
X113475428Y-90741942D01*
X113514133Y-90664533D01*
X113591542Y-90625828D01*
X113746361Y-90625828D01*
X113823771Y-90664533D01*
X113475428Y-91128990D02*
X113552838Y-91167695D01*
X113746361Y-91167695D01*
X113823771Y-91128990D01*
X113862476Y-91051580D01*
X113862476Y-90974171D01*
X113823771Y-90896761D01*
X113746361Y-90858057D01*
X113552838Y-90858057D01*
X113475428Y-90819352D01*
X113088380Y-91167695D02*
X113088380Y-90625828D01*
X113088380Y-90780647D02*
X113049676Y-90703238D01*
X113010971Y-90664533D01*
X112933561Y-90625828D01*
X112856152Y-90625828D01*
X112585219Y-91167695D02*
X112585219Y-90354895D01*
X112585219Y-90664533D02*
X112507809Y-90625828D01*
X112352990Y-90625828D01*
X112275580Y-90664533D01*
X112236876Y-90703238D01*
X112198171Y-90780647D01*
X112198171Y-91012876D01*
X112236876Y-91090285D01*
X112275580Y-91128990D01*
X112352990Y-91167695D01*
X112507809Y-91167695D01*
X112585219Y-91128990D01*
X111733714Y-91167695D02*
X111811123Y-91128990D01*
X111849828Y-91051580D01*
X111849828Y-90354895D01*
X111424076Y-91090285D02*
X111385371Y-91128990D01*
X111424076Y-91167695D01*
X111462780Y-91128990D01*
X111424076Y-91090285D01*
X111424076Y-91167695D01*
X111114438Y-91167695D02*
X110688685Y-90625828D01*
X111114438Y-90625828D02*
X110688685Y-91167695D01*
X110456457Y-90625828D02*
X110262933Y-91167695D01*
X110069409Y-90625828D02*
X110262933Y-91167695D01*
X110340342Y-91361219D01*
X110379047Y-91399923D01*
X110456457Y-91438628D01*
X109837180Y-90625828D02*
X109411428Y-90625828D01*
X109837180Y-91167695D01*
X109411428Y-91167695D01*
X108288990Y-91438628D02*
X108288990Y-90277485D01*
X106856914Y-91477333D02*
X106895619Y-91477333D01*
X106973028Y-91438628D01*
X107011733Y-91361219D01*
X107011733Y-90974171D01*
X107050438Y-90896761D01*
X107127847Y-90858057D01*
X107050438Y-90819352D01*
X107011733Y-90741942D01*
X107011733Y-90354895D01*
X106973028Y-90277485D01*
X106895619Y-90238780D01*
X106856914Y-90238780D01*
X106508571Y-91128990D02*
X106508571Y-91167695D01*
X106547276Y-91245104D01*
X106585980Y-91283809D01*
X106547276Y-90664533D02*
X106508571Y-90703238D01*
X106547276Y-90741942D01*
X106585980Y-90703238D01*
X106547276Y-90664533D01*
X106547276Y-90741942D01*
X106237638Y-91477333D02*
X106198933Y-91477333D01*
X106121523Y-91438628D01*
X106082819Y-91361219D01*
X106082819Y-90974171D01*
X106044114Y-90896761D01*
X105966704Y-90858057D01*
X106044114Y-90819352D01*
X106082819Y-90741942D01*
X106082819Y-90354895D01*
X106121523Y-90277485D01*
X106198933Y-90238780D01*
X106237638Y-90238780D01*
X104650742Y-91128990D02*
X104728152Y-91167695D01*
X104882971Y-91167695D01*
X104960380Y-91128990D01*
X104999085Y-91090285D01*
X105037790Y-91012876D01*
X105037790Y-90780647D01*
X104999085Y-90703238D01*
X104960380Y-90664533D01*
X104882971Y-90625828D01*
X104728152Y-90625828D01*
X104650742Y-90664533D01*
X104302400Y-91167695D02*
X104302400Y-90354895D01*
X103954057Y-91167695D02*
X103954057Y-90741942D01*
X103992761Y-90664533D01*
X104070171Y-90625828D01*
X104186285Y-90625828D01*
X104263695Y-90664533D01*
X104302400Y-90703238D01*
X103218666Y-91167695D02*
X103218666Y-90741942D01*
X103257371Y-90664533D01*
X103334780Y-90625828D01*
X103489600Y-90625828D01*
X103567009Y-90664533D01*
X103218666Y-91128990D02*
X103296076Y-91167695D01*
X103489600Y-91167695D01*
X103567009Y-91128990D01*
X103605714Y-91051580D01*
X103605714Y-90974171D01*
X103567009Y-90896761D01*
X103489600Y-90858057D01*
X103296076Y-90858057D01*
X103218666Y-90819352D01*
X102831619Y-91167695D02*
X102831619Y-90625828D01*
X102831619Y-90780647D02*
X102792914Y-90703238D01*
X102754209Y-90664533D01*
X102676800Y-90625828D01*
X102599390Y-90625828D01*
X102212342Y-91167695D02*
X102289752Y-91128990D01*
X102328457Y-91051580D01*
X102328457Y-90354895D01*
X101593066Y-91128990D02*
X101670476Y-91167695D01*
X101825295Y-91167695D01*
X101902704Y-91128990D01*
X101941409Y-91051580D01*
X101941409Y-90741942D01*
X101902704Y-90664533D01*
X101825295Y-90625828D01*
X101670476Y-90625828D01*
X101593066Y-90664533D01*
X101554361Y-90741942D01*
X101554361Y-90819352D01*
X101941409Y-90896761D01*
X101244723Y-91128990D02*
X101167314Y-91167695D01*
X101012495Y-91167695D01*
X100935085Y-91128990D01*
X100896380Y-91051580D01*
X100896380Y-91012876D01*
X100935085Y-90935466D01*
X101012495Y-90896761D01*
X101128609Y-90896761D01*
X101206019Y-90858057D01*
X101244723Y-90780647D01*
X101244723Y-90741942D01*
X101206019Y-90664533D01*
X101128609Y-90625828D01*
X101012495Y-90625828D01*
X100935085Y-90664533D01*
X100431923Y-91167695D02*
X100509333Y-91128990D01*
X100548038Y-91051580D01*
X100548038Y-90354895D01*
X99773942Y-91167695D02*
X99773942Y-90741942D01*
X99812647Y-90664533D01*
X99890057Y-90625828D01*
X100044876Y-90625828D01*
X100122285Y-90664533D01*
X99773942Y-91128990D02*
X99851352Y-91167695D01*
X100044876Y-91167695D01*
X100122285Y-91128990D01*
X100160990Y-91051580D01*
X100160990Y-90974171D01*
X100122285Y-90896761D01*
X100044876Y-90858057D01*
X99851352Y-90858057D01*
X99773942Y-90819352D01*
X99386895Y-91167695D02*
X99386895Y-90354895D01*
X99386895Y-90664533D02*
X99309485Y-90625828D01*
X99154666Y-90625828D01*
X99077257Y-90664533D01*
X99038552Y-90703238D01*
X98999847Y-90780647D01*
X98999847Y-91012876D01*
X99038552Y-91090285D01*
X99077257Y-91128990D01*
X99154666Y-91167695D01*
X99309485Y-91167695D01*
X99386895Y-91128990D01*
X98690209Y-91128990D02*
X98612800Y-91167695D01*
X98457980Y-91167695D01*
X98380571Y-91128990D01*
X98341866Y-91051580D01*
X98341866Y-91012876D01*
X98380571Y-90935466D01*
X98457980Y-90896761D01*
X98574095Y-90896761D01*
X98651504Y-90858057D01*
X98690209Y-90780647D01*
X98690209Y-90741942D01*
X98651504Y-90664533D01*
X98574095Y-90625828D01*
X98457980Y-90625828D01*
X98380571Y-90664533D01*
X97993523Y-91090285D02*
X97954819Y-91128990D01*
X97993523Y-91167695D01*
X98032228Y-91128990D01*
X97993523Y-91090285D01*
X97993523Y-91167695D01*
X97722590Y-90625828D02*
X97412952Y-90625828D01*
X97606476Y-91167695D02*
X97606476Y-90471009D01*
X97567771Y-90393600D01*
X97490361Y-90354895D01*
X97412952Y-90354895D01*
X97142019Y-91167695D02*
X97142019Y-90625828D01*
X97142019Y-90780647D02*
X97103314Y-90703238D01*
X97064609Y-90664533D01*
X96987200Y-90625828D01*
X96909790Y-90625828D01*
X95826057Y-91438628D02*
X95826057Y-90277485D01*
X94006933Y-90625828D02*
X94626209Y-90858057D01*
X94006933Y-91090285D01*
X93619885Y-91167695D02*
X93619885Y-90354895D01*
X93155428Y-91167695D01*
X93155428Y-90354895D01*
X92768380Y-90625828D02*
X92149104Y-90858057D01*
X92768380Y-91090285D01*
X91142780Y-90625828D02*
X91142780Y-91167695D01*
X91142780Y-90703238D02*
X91104076Y-90664533D01*
X91026666Y-90625828D01*
X90910552Y-90625828D01*
X90833142Y-90664533D01*
X90794438Y-90741942D01*
X90794438Y-91167695D01*
X90059047Y-90625828D02*
X90059047Y-91167695D01*
X90407390Y-90625828D02*
X90407390Y-91051580D01*
X90368685Y-91128990D01*
X90291276Y-91167695D01*
X90175161Y-91167695D01*
X90097752Y-91128990D01*
X90059047Y-91090285D01*
X89672000Y-91167695D02*
X89672000Y-90625828D01*
X89672000Y-90703238D02*
X89633295Y-90664533D01*
X89555885Y-90625828D01*
X89439771Y-90625828D01*
X89362361Y-90664533D01*
X89323657Y-90741942D01*
X89323657Y-91167695D01*
X89323657Y-90741942D02*
X89284952Y-90664533D01*
X89207542Y-90625828D01*
X89091428Y-90625828D01*
X89014019Y-90664533D01*
X88975314Y-90741942D01*
X88975314Y-91167695D01*
X88588266Y-91167695D02*
X88588266Y-90354895D01*
X88588266Y-90664533D02*
X88510857Y-90625828D01*
X88356038Y-90625828D01*
X88278628Y-90664533D01*
X88239923Y-90703238D01*
X88201219Y-90780647D01*
X88201219Y-91012876D01*
X88239923Y-91090285D01*
X88278628Y-91128990D01*
X88356038Y-91167695D01*
X88510857Y-91167695D01*
X88588266Y-91128990D01*
X87543238Y-91128990D02*
X87620647Y-91167695D01*
X87775466Y-91167695D01*
X87852876Y-91128990D01*
X87891580Y-91051580D01*
X87891580Y-90741942D01*
X87852876Y-90664533D01*
X87775466Y-90625828D01*
X87620647Y-90625828D01*
X87543238Y-90664533D01*
X87504533Y-90741942D01*
X87504533Y-90819352D01*
X87891580Y-90896761D01*
X87156190Y-91167695D02*
X87156190Y-90625828D01*
X87156190Y-90780647D02*
X87117485Y-90703238D01*
X87078780Y-90664533D01*
X87001371Y-90625828D01*
X86923961Y-90625828D01*
X86691733Y-91128990D02*
X86614323Y-91167695D01*
X86459504Y-91167695D01*
X86382095Y-91128990D01*
X86343390Y-91051580D01*
X86343390Y-91012876D01*
X86382095Y-90935466D01*
X86459504Y-90896761D01*
X86575619Y-90896761D01*
X86653028Y-90858057D01*
X86691733Y-90780647D01*
X86691733Y-90741942D01*
X86653028Y-90664533D01*
X86575619Y-90625828D01*
X86459504Y-90625828D01*
X86382095Y-90664533D01*
X85878933Y-91167695D02*
X85956342Y-91128990D01*
X85995047Y-91051580D01*
X85995047Y-90354895D01*
X85220952Y-91167695D02*
X85220952Y-90741942D01*
X85259657Y-90664533D01*
X85337066Y-90625828D01*
X85491885Y-90625828D01*
X85569295Y-90664533D01*
X85220952Y-91128990D02*
X85298361Y-91167695D01*
X85491885Y-91167695D01*
X85569295Y-91128990D01*
X85608000Y-91051580D01*
X85608000Y-90974171D01*
X85569295Y-90896761D01*
X85491885Y-90858057D01*
X85298361Y-90858057D01*
X85220952Y-90819352D01*
X84833904Y-91167695D02*
X84833904Y-90354895D01*
X84833904Y-90664533D02*
X84756495Y-90625828D01*
X84601676Y-90625828D01*
X84524266Y-90664533D01*
X84485561Y-90703238D01*
X84446857Y-90780647D01*
X84446857Y-91012876D01*
X84485561Y-91090285D01*
X84524266Y-91128990D01*
X84601676Y-91167695D01*
X84756495Y-91167695D01*
X84833904Y-91128990D01*
X84137219Y-91128990D02*
X84059809Y-91167695D01*
X83904990Y-91167695D01*
X83827580Y-91128990D01*
X83788876Y-91051580D01*
X83788876Y-91012876D01*
X83827580Y-90935466D01*
X83904990Y-90896761D01*
X84021104Y-90896761D01*
X84098514Y-90858057D01*
X84137219Y-90780647D01*
X84137219Y-90741942D01*
X84098514Y-90664533D01*
X84021104Y-90625828D01*
X83904990Y-90625828D01*
X83827580Y-90664533D01*
X83440533Y-91090285D02*
X83401828Y-91128990D01*
X83440533Y-91167695D01*
X83479238Y-91128990D01*
X83440533Y-91090285D01*
X83440533Y-91167695D01*
X82705142Y-91128990D02*
X82782552Y-91167695D01*
X82937371Y-91167695D01*
X83014780Y-91128990D01*
X83053485Y-91090285D01*
X83092190Y-91012876D01*
X83092190Y-90780647D01*
X83053485Y-90703238D01*
X83014780Y-90664533D01*
X82937371Y-90625828D01*
X82782552Y-90625828D01*
X82705142Y-90664533D01*
X82240685Y-91167695D02*
X82318095Y-91128990D01*
X82356800Y-91090285D01*
X82395504Y-91012876D01*
X82395504Y-90780647D01*
X82356800Y-90703238D01*
X82318095Y-90664533D01*
X82240685Y-90625828D01*
X82124571Y-90625828D01*
X82047161Y-90664533D01*
X82008457Y-90703238D01*
X81969752Y-90780647D01*
X81969752Y-91012876D01*
X82008457Y-91090285D01*
X82047161Y-91128990D01*
X82124571Y-91167695D01*
X82240685Y-91167695D01*
X81621409Y-91167695D02*
X81621409Y-90625828D01*
X81621409Y-90703238D02*
X81582704Y-90664533D01*
X81505295Y-90625828D01*
X81389180Y-90625828D01*
X81311771Y-90664533D01*
X81273066Y-90741942D01*
X81273066Y-91167695D01*
X81273066Y-90741942D02*
X81234361Y-90664533D01*
X81156952Y-90625828D01*
X81040838Y-90625828D01*
X80963428Y-90664533D01*
X80924723Y-90741942D01*
X80924723Y-91167695D01*
D11*
X249773098Y-98443676D02*
X249273098Y-98443676D01*
X246973098Y-98443676D02*
X244273098Y-98443676D01*
X241673098Y-98443676D02*
X241973098Y-98443676D01*
X241673098Y-92143676D02*
X241673098Y-98443676D01*
X243323098Y-92143676D02*
X241673098Y-92143676D01*
X249723098Y-92143676D02*
X245673098Y-92143676D01*
X255673098Y-92793676D02*
X253673098Y-92793676D01*
X255673098Y-97793676D02*
X255673098Y-92793676D01*
X253673098Y-97793676D02*
X255673098Y-97793676D01*
X253673098Y-98443676D02*
X252123098Y-98443676D01*
X253673098Y-97793676D02*
X253673098Y-98443676D01*
X253673098Y-92793676D02*
X253673098Y-97793676D01*
X253673098Y-92143676D02*
X253673098Y-92793676D01*
X252073098Y-92143676D02*
X253673098Y-92143676D01*
D12*
X251073098Y-100793676D02*
G75*
G03*
X251073098Y-100793676I-150000J0D01*
G01*
D13*
X225989600Y-97593360D02*
X225989600Y-97093360D01*
X225989600Y-97593360D02*
X225489600Y-97593360D01*
X219689600Y-97593360D02*
X219689600Y-97093360D01*
X219689600Y-97593360D02*
X220189600Y-97593360D01*
X219689600Y-93293360D02*
X220049600Y-92933360D01*
X219689600Y-93803360D02*
X219689600Y-93303360D01*
X225989600Y-92923360D02*
X225489600Y-92923360D01*
X225999600Y-92923360D02*
X225999600Y-93423360D01*
X220069600Y-92933360D02*
X220409600Y-92933360D01*
X203886520Y-97593360D02*
X203886520Y-97093360D01*
X203886520Y-97593360D02*
X203386520Y-97593360D01*
X197586520Y-97593360D02*
X197586520Y-97093360D01*
X197586520Y-97593360D02*
X198086520Y-97593360D01*
X197586520Y-93293360D02*
X197946520Y-92933360D01*
X197586520Y-93803360D02*
X197586520Y-93303360D01*
X203886520Y-92923360D02*
X203386520Y-92923360D01*
X203896520Y-92923360D02*
X203896520Y-93423360D01*
X197966520Y-92933360D02*
X198306520Y-92933360D01*
X181768200Y-97598440D02*
X181768200Y-97098440D01*
X181768200Y-97598440D02*
X181268200Y-97598440D01*
X175468200Y-97598440D02*
X175468200Y-97098440D01*
X175468200Y-97598440D02*
X175968200Y-97598440D01*
X175468200Y-93298440D02*
X175828200Y-92938440D01*
X175468200Y-93808440D02*
X175468200Y-93308440D01*
X181768200Y-92928440D02*
X181268200Y-92928440D01*
X181778200Y-92928440D02*
X181778200Y-93428440D01*
X175848200Y-92938440D02*
X176188200Y-92938440D01*
X157567080Y-97590820D02*
X157567080Y-97090820D01*
X157567080Y-97590820D02*
X157067080Y-97590820D01*
X151267080Y-97590820D02*
X151267080Y-97090820D01*
X151267080Y-97590820D02*
X151767080Y-97590820D01*
X151267080Y-93290820D02*
X151627080Y-92930820D01*
X151267080Y-93800820D02*
X151267080Y-93300820D01*
X157567080Y-92920820D02*
X157067080Y-92920820D01*
X157577080Y-92920820D02*
X157577080Y-93420820D01*
X151647080Y-92930820D02*
X151987080Y-92930820D01*
X137849060Y-97588280D02*
X137849060Y-97088280D01*
X137849060Y-97588280D02*
X137349060Y-97588280D01*
X131549060Y-97588280D02*
X131549060Y-97088280D01*
X131549060Y-97588280D02*
X132049060Y-97588280D01*
X131549060Y-93288280D02*
X131909060Y-92928280D01*
X131549060Y-93798280D02*
X131549060Y-93298280D01*
X137849060Y-92918280D02*
X137349060Y-92918280D01*
X137859060Y-92918280D02*
X137859060Y-93418280D01*
X131929060Y-92928280D02*
X132269060Y-92928280D01*
X114341360Y-97595900D02*
X114341360Y-97095900D01*
X114341360Y-97595900D02*
X113841360Y-97595900D01*
X108041360Y-97595900D02*
X108041360Y-97095900D01*
X108041360Y-97595900D02*
X108541360Y-97595900D01*
X108041360Y-93295900D02*
X108401360Y-92935900D01*
X108041360Y-93805900D02*
X108041360Y-93305900D01*
X114341360Y-92925900D02*
X113841360Y-92925900D01*
X114351360Y-92925900D02*
X114351360Y-93425900D01*
X108421360Y-92935900D02*
X108761360Y-92935900D01*
X93835940Y-97593360D02*
X93835940Y-97093360D01*
X93835940Y-97593360D02*
X93335940Y-97593360D01*
X87535940Y-97593360D02*
X87535940Y-97093360D01*
X87535940Y-97593360D02*
X88035940Y-97593360D01*
X87535940Y-93293360D02*
X87895940Y-92933360D01*
X87535940Y-93803360D02*
X87535940Y-93303360D01*
X93835940Y-92923360D02*
X93335940Y-92923360D01*
X93845940Y-92923360D02*
X93845940Y-93423360D01*
X87915940Y-92933360D02*
X88255940Y-92933360D01*
D14*
X150239298Y-92750076D02*
X150239298Y-97950076D01*
X145099298Y-92750076D02*
X150239298Y-92750076D01*
X142499298Y-97950076D02*
X150239298Y-97950076D01*
X145099298Y-92750076D02*
X145099298Y-95350076D01*
X145099298Y-95350076D02*
X142499298Y-95350076D01*
X142499298Y-95350076D02*
X142499298Y-97950076D01*
X143829298Y-92750076D02*
X142499298Y-92750076D01*
X142499298Y-92750076D02*
X142499298Y-94080076D01*
D15*
X252089575Y-87847347D02*
X252089575Y-88562949D01*
X252137282Y-88706070D01*
X252232696Y-88801483D01*
X252375816Y-88849190D01*
X252471230Y-88849190D01*
X251707921Y-87847347D02*
X251087732Y-87847347D01*
X251421680Y-88229002D01*
X251278559Y-88229002D01*
X251183146Y-88276708D01*
X251135439Y-88324415D01*
X251087732Y-88419829D01*
X251087732Y-88658363D01*
X251135439Y-88753777D01*
X251183146Y-88801483D01*
X251278559Y-88849190D01*
X251564800Y-88849190D01*
X251660214Y-88801483D01*
X251707921Y-88753777D01*
D16*
X140951678Y-95016742D02*
X141665964Y-95016742D01*
X141808821Y-94969123D01*
X141904059Y-94873885D01*
X141951678Y-94731028D01*
X141951678Y-94635790D01*
X141046917Y-95445314D02*
X140999298Y-95492933D01*
X140951678Y-95588171D01*
X140951678Y-95826266D01*
X140999298Y-95921504D01*
X141046917Y-95969123D01*
X141142155Y-96016742D01*
X141237393Y-96016742D01*
X141380250Y-95969123D01*
X141951678Y-95397695D01*
X141951678Y-96016742D01*
M02*
