%TF.GenerationSoftware,KiCad,Pcbnew,5.1.6-c6e7f7d~87~ubuntu20.04.1*%
%TF.CreationDate,2020-08-31T22:16:30+02:00*%
%TF.ProjectId,WARBL2.2,57415242-4c32-42e3-922e-6b696361645f,2.1*%
%TF.SameCoordinates,Original*%
%TF.FileFunction,Copper,L4,Bot*%
%TF.FilePolarity,Positive*%
%FSLAX46Y46*%
G04 Gerber Fmt 4.6, Leading zero omitted, Abs format (unit mm)*
G04 Created by KiCad (PCBNEW 5.1.6-c6e7f7d~87~ubuntu20.04.1) date 2020-08-31 22:16:30*
%MOMM*%
%LPD*%
G01*
G04 APERTURE LIST*
%TA.AperFunction,SMDPad,CuDef*%
%ADD10R,2.510000X1.000000*%
%TD*%
%TA.AperFunction,SMDPad,CuDef*%
%ADD11R,1.800000X1.650000*%
%TD*%
%TA.AperFunction,SMDPad,CuDef*%
%ADD12R,1.000000X1.000000*%
%TD*%
%TA.AperFunction,SMDPad,CuDef*%
%ADD13R,1.400000X1.650000*%
%TD*%
%TA.AperFunction,ComponentPad*%
%ADD14C,1.760000*%
%TD*%
%TA.AperFunction,ComponentPad*%
%ADD15R,1.750000X1.750000*%
%TD*%
%TA.AperFunction,ComponentPad*%
%ADD16O,1.700000X1.700000*%
%TD*%
%TA.AperFunction,ComponentPad*%
%ADD17R,1.700000X1.700000*%
%TD*%
%TA.AperFunction,ComponentPad*%
%ADD18O,2.100000X1.000000*%
%TD*%
%TA.AperFunction,ComponentPad*%
%ADD19O,1.600000X1.000000*%
%TD*%
%TA.AperFunction,ComponentPad*%
%ADD20C,5.562600*%
%TD*%
%TA.AperFunction,ViaPad*%
%ADD21C,0.600000*%
%TD*%
%TA.AperFunction,ViaPad*%
%ADD22C,0.450000*%
%TD*%
%TA.AperFunction,ViaPad*%
%ADD23C,0.900000*%
%TD*%
%TA.AperFunction,Conductor*%
%ADD24C,0.400000*%
%TD*%
%TA.AperFunction,Conductor*%
%ADD25C,0.300000*%
%TD*%
%TA.AperFunction,Conductor*%
%ADD26C,0.200000*%
%TD*%
%TA.AperFunction,Conductor*%
%ADD27C,0.150000*%
%TD*%
%TA.AperFunction,Conductor*%
%ADD28C,0.254000*%
%TD*%
G04 APERTURE END LIST*
D10*
X75742800Y-97790000D03*
X75742800Y-95250000D03*
X75742800Y-92710000D03*
D11*
X243123098Y-99118676D03*
D12*
X247773098Y-98393676D03*
D13*
X250723098Y-99118676D03*
D11*
X244473098Y-91468676D03*
D13*
X250723098Y-91468676D03*
D14*
X224129600Y-94193360D03*
X224129600Y-96303360D03*
X221589600Y-96303360D03*
D15*
X221589600Y-94193360D03*
D14*
X202026520Y-94193360D03*
X202026520Y-96303360D03*
X199486520Y-96303360D03*
D15*
X199486520Y-94193360D03*
D14*
X179908200Y-94198440D03*
X179908200Y-96308440D03*
X177368200Y-96308440D03*
D15*
X177368200Y-94198440D03*
D14*
X155707080Y-94190820D03*
X155707080Y-96300820D03*
X153167080Y-96300820D03*
D15*
X153167080Y-94190820D03*
D14*
X135989060Y-94188280D03*
X135989060Y-96298280D03*
X133449060Y-96298280D03*
D15*
X133449060Y-94188280D03*
D14*
X112481360Y-94195900D03*
X112481360Y-96305900D03*
X109941360Y-96305900D03*
D15*
X109941360Y-94195900D03*
D14*
X91975940Y-94193360D03*
X91975940Y-96303360D03*
X89435940Y-96303360D03*
D15*
X89435940Y-94193360D03*
D14*
X81099660Y-94190820D03*
X81099660Y-96300820D03*
X83639660Y-96300820D03*
D15*
X83639660Y-94190820D03*
D16*
X148909298Y-96620076D03*
X148909298Y-94080076D03*
X146369298Y-96620076D03*
X146369298Y-94080076D03*
X143829298Y-96620076D03*
D17*
X143829298Y-94080076D03*
D18*
X248188098Y-90923676D03*
X248188098Y-99563676D03*
D19*
X252368098Y-99563676D03*
X252368098Y-90923676D03*
D20*
X101188520Y-95245000D03*
X186458860Y-95245000D03*
D21*
X139873098Y-96878281D03*
X140290470Y-92711048D03*
X215273098Y-96893676D03*
X212273098Y-97363676D03*
X168473098Y-95293676D03*
X168473098Y-97493676D03*
X159873098Y-97693676D03*
X157861284Y-97705490D03*
X104673098Y-99093676D03*
X104673098Y-97293676D03*
X107873098Y-93693676D03*
X109273098Y-92093676D03*
X94154594Y-93375172D03*
X91473098Y-91693676D03*
X95873098Y-94293676D03*
D22*
X226073098Y-91493676D03*
X223673098Y-91188676D03*
D21*
X243473098Y-97493676D03*
X244273098Y-94893676D03*
X246495720Y-99716298D03*
X222834254Y-93098685D03*
X217673098Y-94293676D03*
X207673098Y-95293676D03*
X196073098Y-92768675D03*
X196073098Y-95493676D03*
X182673098Y-93093676D03*
X175273098Y-92293676D03*
X173873098Y-95293676D03*
X175273098Y-97693676D03*
X145073098Y-91493676D03*
X149673098Y-92093676D03*
X150073098Y-93293676D03*
X81107325Y-91927903D03*
X75873098Y-91293676D03*
X79873098Y-90893676D03*
X113800000Y-97200000D03*
X114600000Y-97200000D03*
X124000000Y-94000000D03*
X126800000Y-97400000D03*
X131400000Y-91800000D03*
X128600000Y-92200000D03*
D22*
X148200000Y-99600000D03*
X150000000Y-99371321D03*
D21*
X249568108Y-95231892D03*
X205000000Y-97000000D03*
X238100000Y-99100000D03*
X241909167Y-95427851D03*
D22*
X231118550Y-95855650D03*
X232406050Y-95855650D03*
D21*
X246073098Y-92093676D03*
D22*
X140436938Y-96544947D03*
X140600000Y-93900000D03*
D21*
X140000000Y-99446321D03*
X129800000Y-99700000D03*
D22*
X226400000Y-95476890D03*
X225053355Y-95483661D03*
X137200000Y-99700000D03*
D23*
X241273098Y-94093676D03*
X235573098Y-91493676D03*
X235773098Y-98593676D03*
D22*
X220273098Y-91693676D03*
X227588653Y-93232114D03*
D21*
X228673447Y-99094273D03*
D22*
X77273098Y-93493676D03*
X130673098Y-92623279D03*
X233767300Y-91593676D03*
X212073098Y-92693675D03*
X236450000Y-93200000D03*
X235873098Y-93693676D03*
X172073098Y-97893676D03*
X192673098Y-92693676D03*
X235843012Y-92723762D03*
X231742302Y-98944199D03*
X231528100Y-99488676D03*
X138273098Y-100038676D03*
X230829134Y-99263674D03*
X160473098Y-99493676D03*
X230273098Y-99098676D03*
X183873098Y-99371321D03*
X232273098Y-99263674D03*
X78273098Y-99293676D03*
X227500000Y-95141900D03*
X229673098Y-90893676D03*
X230273098Y-90693676D03*
X231273098Y-90293676D03*
X235745615Y-97721159D03*
D21*
X240973098Y-99993676D03*
X245073098Y-96993676D03*
D22*
X241029569Y-100754612D03*
X234873098Y-98493676D03*
X235473098Y-94206900D03*
X240073098Y-98093676D03*
X240876244Y-98896822D03*
X234273098Y-91123678D03*
D24*
X139873098Y-93128420D02*
X140290470Y-92711048D01*
X139873098Y-96878281D02*
X139873098Y-93128420D01*
X215273098Y-96893676D02*
X212743098Y-96893676D01*
X212743098Y-96893676D02*
X212273098Y-97363676D01*
X168473098Y-95293676D02*
X168473098Y-97493676D01*
X157873098Y-97693676D02*
X157861284Y-97705490D01*
X159873098Y-97693676D02*
X157873098Y-97693676D01*
X104673098Y-99093676D02*
X104673098Y-97293676D01*
X107873098Y-93493676D02*
X109273098Y-92093676D01*
X107873098Y-93693676D02*
X107873098Y-93493676D01*
X94154594Y-93375172D02*
X92473098Y-91693676D01*
X92473098Y-91693676D02*
X91473098Y-91693676D01*
D25*
X225768098Y-91188676D02*
X223673098Y-91188676D01*
X226073098Y-91493676D02*
X225768098Y-91188676D01*
X218928415Y-93038359D02*
X217673098Y-94293676D01*
X222773928Y-93038359D02*
X218928415Y-93038359D01*
X222834254Y-93098685D02*
X222773928Y-93038359D01*
X196138424Y-92703349D02*
X196073098Y-92768675D01*
X205082771Y-92703349D02*
X196138424Y-92703349D01*
X207673098Y-95293676D02*
X205082771Y-92703349D01*
D24*
X196073098Y-92768675D02*
X196073098Y-95493676D01*
X181873098Y-92293676D02*
X175273098Y-92293676D01*
X182673098Y-93093676D02*
X181873098Y-92293676D01*
X173873098Y-96293676D02*
X175273098Y-97693676D01*
X173873098Y-95293676D02*
X173873098Y-96293676D01*
X145673098Y-92093676D02*
X149673098Y-92093676D01*
X145073098Y-91493676D02*
X145673098Y-92093676D01*
X149673098Y-92893676D02*
X150073098Y-93293676D01*
X149673098Y-92093676D02*
X149673098Y-92893676D01*
D25*
X111906324Y-99093676D02*
X104673098Y-99093676D01*
X113800000Y-97200000D02*
X111906324Y-99093676D01*
D24*
X129000000Y-91800000D02*
X128600000Y-92200000D01*
X131400000Y-91800000D02*
X129000000Y-91800000D01*
X149771321Y-99600000D02*
X150000000Y-99371321D01*
X148200000Y-99600000D02*
X149771321Y-99600000D01*
D25*
X223673098Y-91188676D02*
X219811324Y-91188676D01*
X219811324Y-91188676D02*
X219400000Y-91600000D01*
D24*
X241909167Y-95929745D02*
X241909167Y-95427851D01*
X243473098Y-97493676D02*
X241909167Y-95929745D01*
D26*
X231074200Y-95900000D02*
X231118550Y-95855650D01*
D24*
X140436938Y-94063062D02*
X140600000Y-93900000D01*
X140436938Y-96544947D02*
X140436938Y-94063062D01*
X130053679Y-99446321D02*
X129800000Y-99700000D01*
X140000000Y-99446321D02*
X130053679Y-99446321D01*
X126800000Y-97400000D02*
X124000000Y-94600000D01*
X124000000Y-94600000D02*
X124000000Y-94000000D01*
D26*
X222849580Y-93083359D02*
X222834254Y-93098685D01*
D25*
X227000021Y-96076911D02*
X226400000Y-95476890D01*
X230897289Y-96076911D02*
X227000021Y-96076911D01*
X231118550Y-95855650D02*
X230897289Y-96076911D01*
X222899580Y-93033359D02*
X222834254Y-93098685D01*
X224686401Y-93033359D02*
X222899580Y-93033359D01*
X225289601Y-93636559D02*
X224686401Y-93033359D01*
X225289601Y-94750161D02*
X225289601Y-93636559D01*
X225053355Y-94986407D02*
X225289601Y-94750161D01*
X225053355Y-95483661D02*
X225053355Y-94986407D01*
X232406050Y-95855650D02*
X231118550Y-95855650D01*
D26*
X137453679Y-99446321D02*
X140000000Y-99446321D01*
X137200000Y-99700000D02*
X137453679Y-99446321D01*
D24*
X238173098Y-94093676D02*
X235573098Y-91493676D01*
X241273098Y-94093676D02*
X238173098Y-94093676D01*
X241273098Y-94093676D02*
X240273098Y-94093676D01*
X241273098Y-97715078D02*
X239944501Y-99043675D01*
X241273098Y-94093676D02*
X241273098Y-97715078D01*
X243898098Y-91468676D02*
X244473098Y-91468676D01*
X241273098Y-94093676D02*
X243898098Y-91468676D01*
D25*
X235573098Y-91493676D02*
X234573098Y-92493676D01*
X226980298Y-93232114D02*
X225441860Y-91693676D01*
X225441860Y-91693676D02*
X220273098Y-91693676D01*
X227588653Y-93232114D02*
X226980298Y-93232114D01*
X228327091Y-92493676D02*
X227588653Y-93232114D01*
X234573098Y-92493676D02*
X228327091Y-92493676D01*
X230074044Y-97693676D02*
X228673447Y-99094273D01*
X234873098Y-97693676D02*
X230074044Y-97693676D01*
X234873098Y-97693676D02*
X235773098Y-98593676D01*
X76526476Y-93493676D02*
X75742800Y-92710000D01*
X77273098Y-93493676D02*
X76526476Y-93493676D01*
X77735955Y-93030819D02*
X77273098Y-93493676D01*
X82479659Y-93030819D02*
X77735955Y-93030819D01*
X83639660Y-94190820D02*
X82479659Y-93030819D01*
D24*
X131884059Y-92623279D02*
X133449060Y-94188280D01*
X130673098Y-92623279D02*
X131884059Y-92623279D01*
X153167080Y-94190820D02*
X152097823Y-95260077D01*
X143829298Y-96620076D02*
X143829298Y-96049876D01*
X143829298Y-96049876D02*
X143039499Y-95260077D01*
X152097823Y-95260077D02*
X143039499Y-95260077D01*
X154377081Y-92980819D02*
X153167080Y-94190820D01*
X176150579Y-92980819D02*
X154377081Y-92980819D01*
X177368200Y-94198440D02*
X176150579Y-92980819D01*
X135408259Y-97508281D02*
X134659061Y-96759083D01*
X140258493Y-97508281D02*
X135408259Y-97508281D01*
X134659061Y-95398281D02*
X133449060Y-94188280D01*
X142506697Y-95260077D02*
X140258493Y-97508281D01*
X134659061Y-96759083D02*
X134659061Y-95398281D01*
X143039499Y-95260077D02*
X142506697Y-95260077D01*
X239944501Y-99043675D02*
X239944501Y-99055499D01*
X239944501Y-99055499D02*
X239100000Y-99900000D01*
X237079422Y-99900000D02*
X235773098Y-98593676D01*
X239100000Y-99900000D02*
X237079422Y-99900000D01*
D27*
X227034499Y-91818675D02*
X225974499Y-90758675D01*
X233542301Y-91818675D02*
X227034499Y-91818675D01*
X233767300Y-91593676D02*
X233542301Y-91818675D01*
X154480223Y-90758675D02*
X150945222Y-94293676D01*
X225974499Y-90758675D02*
X154480223Y-90758675D01*
X149122898Y-94293676D02*
X148909298Y-94080076D01*
X150945222Y-94293676D02*
X149122898Y-94293676D01*
D26*
X234473098Y-93293676D02*
X228673098Y-93293676D01*
X228667197Y-93293676D02*
X227943748Y-94017125D01*
X228673098Y-93293676D02*
X228667197Y-93293676D01*
X226761190Y-94017124D02*
X225312751Y-92568685D01*
X227943748Y-94017125D02*
X226761190Y-94017124D01*
X212198088Y-92568685D02*
X212073098Y-92693675D01*
X225312751Y-92568685D02*
X212198088Y-92568685D01*
D27*
X235833478Y-93200000D02*
X235798123Y-93200000D01*
D26*
X235606324Y-93293676D02*
X235611325Y-93288675D01*
X234473098Y-93293676D02*
X235606324Y-93293676D01*
D27*
X235886325Y-93263675D02*
X235950000Y-93200000D01*
X235636325Y-93263675D02*
X235886325Y-93263675D01*
X235606324Y-93293676D02*
X235636325Y-93263675D01*
D26*
X235950000Y-93200000D02*
X235833478Y-93200000D01*
X236450000Y-93200000D02*
X235950000Y-93200000D01*
D25*
X226229989Y-94899499D02*
X225894999Y-95234489D01*
X226994999Y-94899499D02*
X226229989Y-94899499D01*
X225894999Y-95234489D02*
X225894999Y-96094999D01*
X227257599Y-95646901D02*
X226994999Y-95384301D01*
X226994999Y-95384301D02*
X226994999Y-94899499D01*
X227742401Y-95646901D02*
X227257599Y-95646901D01*
X229695626Y-93693676D02*
X227742401Y-95646901D01*
X235873098Y-93693676D02*
X229695626Y-93693676D01*
X225888366Y-96811634D02*
X224500000Y-98200000D01*
X225888366Y-96101632D02*
X225888366Y-96811634D01*
X225894999Y-96094999D02*
X225888366Y-96101632D01*
D26*
X224443699Y-98256301D02*
X224500000Y-98200000D01*
X172435723Y-98256301D02*
X224443699Y-98256301D01*
X172073098Y-97893676D02*
X172435723Y-98256301D01*
X226897885Y-93687115D02*
X225449445Y-92238675D01*
X227807054Y-93687115D02*
X226897885Y-93687115D01*
X228535504Y-92958665D02*
X227807054Y-93687115D01*
X235608109Y-92958665D02*
X228535504Y-92958665D01*
X235843012Y-92723762D02*
X235608109Y-92958665D01*
X193128099Y-92238675D02*
X192673098Y-92693676D01*
X225449445Y-92238675D02*
X193128099Y-92238675D01*
X229908447Y-98643675D02*
X228927848Y-99624274D01*
X231441778Y-98643675D02*
X229908447Y-98643675D01*
X231742302Y-98944199D02*
X231441778Y-98643675D01*
X228927848Y-99624274D02*
X225981052Y-99624274D01*
X117201781Y-98916321D02*
X112481360Y-94195900D01*
X225273099Y-98916321D02*
X117201781Y-98916321D01*
X225981052Y-99624274D02*
X225273099Y-98916321D01*
D27*
X231528100Y-99488676D02*
X230427474Y-100589302D01*
X230427474Y-100589302D02*
X225168724Y-100589302D01*
X225168724Y-100589302D02*
X224803108Y-100223686D01*
D26*
X224803108Y-100223686D02*
X138458108Y-100223686D01*
X138458108Y-100223686D02*
X138273098Y-100038676D01*
X229808516Y-100284292D02*
X225463714Y-100284292D01*
X230829134Y-99263674D02*
X229808516Y-100284292D01*
X225463714Y-100284292D02*
X225073098Y-99893676D01*
X160873098Y-99893676D02*
X160473098Y-99493676D01*
X225073098Y-99893676D02*
X160873098Y-99893676D01*
X230273098Y-99098676D02*
X229920150Y-99098676D01*
X229920150Y-99098676D02*
X229064542Y-99954284D01*
X229064542Y-99954284D02*
X225844357Y-99954283D01*
X225844357Y-99954283D02*
X225136405Y-99246331D01*
X225136405Y-99246331D02*
X215673098Y-99246331D01*
X183998088Y-99246331D02*
X183873098Y-99371321D01*
X215673098Y-99246331D02*
X183998088Y-99246331D01*
X225042386Y-100894312D02*
X224701770Y-100553696D01*
X230960658Y-100894312D02*
X225042386Y-100894312D01*
X232273098Y-99581872D02*
X230960658Y-100894312D01*
X232273098Y-99263674D02*
X232273098Y-99581872D01*
X79533118Y-100553696D02*
X78273098Y-99293676D01*
X224701770Y-100553696D02*
X79533118Y-100553696D01*
X224182086Y-97893676D02*
X225508356Y-96567406D01*
X203616836Y-97893676D02*
X224182086Y-97893676D01*
X202026520Y-96303360D02*
X203616836Y-97893676D01*
X226072584Y-94519489D02*
X225514989Y-95077084D01*
X227195787Y-94519489D02*
X226072584Y-94519489D01*
X227500000Y-94823702D02*
X227195787Y-94519489D01*
X227500000Y-95141900D02*
X227500000Y-94823702D01*
X225508356Y-95944227D02*
X225508356Y-96567406D01*
X225514989Y-95937594D02*
X225508356Y-95944227D01*
X225514989Y-95077084D02*
X225514989Y-95937594D01*
D27*
X141808675Y-90478665D02*
X135989060Y-96298280D01*
X229673098Y-90893676D02*
X229258087Y-90478665D01*
X229258087Y-90478665D02*
X229088109Y-90478665D01*
X229088109Y-90478665D02*
X141808675Y-90478665D01*
X111396359Y-95220899D02*
X112481360Y-96305900D01*
X111396359Y-93675099D02*
X111396359Y-95220899D01*
X114872803Y-90198655D02*
X111396359Y-93675099D01*
X229778077Y-90198655D02*
X229768119Y-90198655D01*
X229778077Y-90198655D02*
X229568119Y-90198655D01*
X230273098Y-90693676D02*
X229778077Y-90198655D01*
X229568119Y-90198655D02*
X114873098Y-90198655D01*
D26*
X98385655Y-89893645D02*
X91975940Y-96303360D01*
X230873067Y-89893645D02*
X98385655Y-89893645D01*
X231273098Y-90293676D02*
X230873067Y-89893645D01*
X157992571Y-98586311D02*
X155707080Y-96300820D01*
X226519812Y-97313666D02*
X225247167Y-98586311D01*
X235338122Y-97313666D02*
X226519812Y-97313666D01*
X225247167Y-98586311D02*
X157992571Y-98586311D01*
X235745615Y-97721159D02*
X235338122Y-97313666D01*
X200591521Y-93985557D02*
X200591521Y-95198359D01*
X201493719Y-93083359D02*
X200591521Y-93985557D01*
X200591521Y-95198359D02*
X199486520Y-96303360D01*
X202559321Y-93083359D02*
X201493719Y-93083359D01*
X205779322Y-96303360D02*
X202559321Y-93083359D01*
X221589600Y-96303360D02*
X205779322Y-96303360D01*
X178478201Y-97418441D02*
X177368200Y-96308440D01*
X180748333Y-97418441D02*
X178478201Y-97418441D01*
X181018201Y-97148573D02*
X180748333Y-97418441D01*
X181018201Y-96228933D02*
X181018201Y-97148573D01*
X185013435Y-92233699D02*
X181018201Y-96228933D01*
X187904285Y-92233699D02*
X185013435Y-92233699D01*
X191973946Y-96303360D02*
X187904285Y-92233699D01*
X199486520Y-96303360D02*
X191973946Y-96303360D01*
X153167080Y-96300820D02*
X150974224Y-98493676D01*
X135644456Y-98493676D02*
X133449060Y-96298280D01*
X150974224Y-98493676D02*
X135644456Y-98493676D01*
D25*
X249698088Y-100343686D02*
X250923098Y-99118676D01*
X241323108Y-100343686D02*
X249698088Y-100343686D01*
X240973098Y-99993676D02*
X241323108Y-100343686D01*
X246373098Y-96993676D02*
X247773098Y-98393676D01*
X245073098Y-96993676D02*
X246373098Y-96993676D01*
X241010485Y-100773696D02*
X241029569Y-100754612D01*
D26*
X235466696Y-99293676D02*
X235864974Y-99293676D01*
X235093097Y-98920077D02*
X235466696Y-99293676D01*
X235093097Y-98513675D02*
X235093097Y-98920077D01*
X235073098Y-98493676D02*
X235093097Y-98513675D01*
X234873098Y-98493676D02*
X235073098Y-98493676D01*
X237325910Y-100754612D02*
X241029569Y-100754612D01*
X235864974Y-99293676D02*
X237325910Y-100754612D01*
D25*
X236186322Y-94206900D02*
X240073098Y-98093676D01*
X235473098Y-94206900D02*
X236186322Y-94206900D01*
X242901244Y-98896822D02*
X243123098Y-99118676D01*
X240876244Y-98896822D02*
X242901244Y-98896822D01*
X235033101Y-90363675D02*
X234273098Y-91123678D01*
X245597099Y-90363675D02*
X235033101Y-90363675D01*
X246937110Y-91703686D02*
X245597099Y-90363675D01*
X250488088Y-91703686D02*
X246937110Y-91703686D01*
X250723098Y-91468676D02*
X250488088Y-91703686D01*
D28*
G36*
X97991137Y-89536085D02*
G01*
X93287740Y-94239483D01*
X93287740Y-94064159D01*
X93237328Y-93810722D01*
X93138442Y-93571990D01*
X92994881Y-93357136D01*
X92812164Y-93174419D01*
X92597310Y-93030858D01*
X92358578Y-92931972D01*
X92105141Y-92881560D01*
X91846739Y-92881560D01*
X91593302Y-92931972D01*
X91354570Y-93030858D01*
X91139716Y-93174419D01*
X90956999Y-93357136D01*
X90813438Y-93571990D01*
X90744829Y-93737627D01*
X90744829Y-93318360D01*
X90736492Y-93233712D01*
X90711801Y-93152318D01*
X90671706Y-93077304D01*
X90617746Y-93011554D01*
X90551996Y-92957594D01*
X90476982Y-92917499D01*
X90395588Y-92892808D01*
X90310940Y-92884471D01*
X88560940Y-92884471D01*
X88476292Y-92892808D01*
X88394898Y-92917499D01*
X88319884Y-92957594D01*
X88254134Y-93011554D01*
X88200174Y-93077304D01*
X88160079Y-93152318D01*
X88135388Y-93233712D01*
X88127051Y-93318360D01*
X88127051Y-95068360D01*
X88135388Y-95153008D01*
X88160079Y-95234402D01*
X88200174Y-95309416D01*
X88254134Y-95375166D01*
X88319884Y-95429126D01*
X88394898Y-95469221D01*
X88412116Y-95474444D01*
X88273438Y-95681990D01*
X88174552Y-95920722D01*
X88124140Y-96174159D01*
X88124140Y-96432561D01*
X88174552Y-96685998D01*
X88273438Y-96924730D01*
X88416999Y-97139584D01*
X88599716Y-97322301D01*
X88814570Y-97465862D01*
X89053302Y-97564748D01*
X89306739Y-97615160D01*
X89565141Y-97615160D01*
X89818578Y-97564748D01*
X90057310Y-97465862D01*
X90272164Y-97322301D01*
X90454881Y-97139584D01*
X90598442Y-96924730D01*
X90697328Y-96685998D01*
X90705940Y-96642703D01*
X90714552Y-96685998D01*
X90813438Y-96924730D01*
X90956999Y-97139584D01*
X91139716Y-97322301D01*
X91354570Y-97465862D01*
X91593302Y-97564748D01*
X91846739Y-97615160D01*
X92105141Y-97615160D01*
X92358578Y-97564748D01*
X92597310Y-97465862D01*
X92812164Y-97322301D01*
X92994881Y-97139584D01*
X93138442Y-96924730D01*
X93237328Y-96685998D01*
X93287740Y-96432561D01*
X93287740Y-96174159D01*
X93237328Y-95920722D01*
X93200226Y-95831151D01*
X93794155Y-95237222D01*
X97755699Y-95237222D01*
X97820143Y-95907082D01*
X98014031Y-96551498D01*
X98329914Y-97145706D01*
X98338554Y-97158640D01*
X98785336Y-97468579D01*
X101008915Y-95245000D01*
X101368125Y-95245000D01*
X103591704Y-97468579D01*
X104038486Y-97158640D01*
X104357057Y-96565870D01*
X104553863Y-95922339D01*
X104621341Y-95252778D01*
X104556897Y-94582918D01*
X104363009Y-93938502D01*
X104047126Y-93344294D01*
X104038486Y-93331360D01*
X103591704Y-93021421D01*
X101368125Y-95245000D01*
X101008915Y-95245000D01*
X98785336Y-93021421D01*
X98338554Y-93331360D01*
X98019983Y-93924130D01*
X97823177Y-94567661D01*
X97755699Y-95237222D01*
X93794155Y-95237222D01*
X96189561Y-92841816D01*
X98964941Y-92841816D01*
X101188520Y-95065395D01*
X103412099Y-92841816D01*
X103102160Y-92395034D01*
X102509390Y-92076463D01*
X101865859Y-91879657D01*
X101196298Y-91812179D01*
X100526438Y-91876623D01*
X99882022Y-92070511D01*
X99287814Y-92386394D01*
X99274880Y-92395034D01*
X98964941Y-92841816D01*
X96189561Y-92841816D01*
X98605933Y-90425445D01*
X113929290Y-90425445D01*
X111211180Y-93143556D01*
X111177126Y-93079844D01*
X111123166Y-93014094D01*
X111057416Y-92960134D01*
X110982402Y-92920039D01*
X110901008Y-92895348D01*
X110816360Y-92887011D01*
X109066360Y-92887011D01*
X108981712Y-92895348D01*
X108900318Y-92920039D01*
X108825304Y-92960134D01*
X108759554Y-93014094D01*
X108705594Y-93079844D01*
X108665499Y-93154858D01*
X108640808Y-93236252D01*
X108632471Y-93320900D01*
X108632471Y-95070900D01*
X108640808Y-95155548D01*
X108665499Y-95236942D01*
X108705594Y-95311956D01*
X108759554Y-95377706D01*
X108825304Y-95431666D01*
X108900318Y-95471761D01*
X108917536Y-95476984D01*
X108778858Y-95684530D01*
X108679972Y-95923262D01*
X108629560Y-96176699D01*
X108629560Y-96435101D01*
X108679972Y-96688538D01*
X108778858Y-96927270D01*
X108922419Y-97142124D01*
X109105136Y-97324841D01*
X109319990Y-97468402D01*
X109558722Y-97567288D01*
X109812159Y-97617700D01*
X110070561Y-97617700D01*
X110323998Y-97567288D01*
X110562730Y-97468402D01*
X110777584Y-97324841D01*
X110960301Y-97142124D01*
X111103862Y-96927270D01*
X111202748Y-96688538D01*
X111211360Y-96645243D01*
X111219972Y-96688538D01*
X111318858Y-96927270D01*
X111462419Y-97142124D01*
X111645136Y-97324841D01*
X111859990Y-97468402D01*
X112098722Y-97567288D01*
X112352159Y-97617700D01*
X112610561Y-97617700D01*
X112863998Y-97567288D01*
X113102730Y-97468402D01*
X113317584Y-97324841D01*
X113500301Y-97142124D01*
X113643862Y-96927270D01*
X113742748Y-96688538D01*
X113793160Y-96435101D01*
X113793160Y-96259778D01*
X116807268Y-99273887D01*
X116823922Y-99294180D01*
X116904899Y-99360636D01*
X116978507Y-99399980D01*
X116997285Y-99410017D01*
X117097529Y-99440426D01*
X117201780Y-99450694D01*
X117227904Y-99448121D01*
X137982522Y-99448121D01*
X137961987Y-99456627D01*
X137854412Y-99528506D01*
X137762928Y-99619990D01*
X137691049Y-99727565D01*
X137641538Y-99847094D01*
X137616298Y-99973987D01*
X137616298Y-100021896D01*
X79753397Y-100021896D01*
X78922303Y-99190804D01*
X78904658Y-99102094D01*
X78855147Y-98982565D01*
X78783268Y-98874990D01*
X78691784Y-98783506D01*
X78584209Y-98711627D01*
X78464680Y-98662116D01*
X78337787Y-98636876D01*
X78208409Y-98636876D01*
X78081516Y-98662116D01*
X77961987Y-98711627D01*
X77854412Y-98783506D01*
X77762928Y-98874990D01*
X77691049Y-98982565D01*
X77641538Y-99102094D01*
X77616298Y-99228987D01*
X77616298Y-99358365D01*
X77641538Y-99485258D01*
X77691049Y-99604787D01*
X77762928Y-99712362D01*
X77854412Y-99803846D01*
X77961987Y-99875725D01*
X78081516Y-99925236D01*
X78170226Y-99942881D01*
X79084219Y-100856876D01*
X75513919Y-100856876D01*
X75453993Y-100819222D01*
X75347552Y-100712781D01*
X75267469Y-100585330D01*
X75217755Y-100443254D01*
X75200098Y-100286547D01*
X75200098Y-99305123D01*
X75231065Y-99245889D01*
X75245910Y-99209148D01*
X75261238Y-99172683D01*
X75263001Y-99166844D01*
X75285042Y-99091954D01*
X75292462Y-99053056D01*
X75300420Y-99014285D01*
X75301016Y-99008215D01*
X75308091Y-98930469D01*
X75307814Y-98890844D01*
X75308090Y-98851296D01*
X75307495Y-98845226D01*
X75299335Y-98767587D01*
X75291378Y-98728824D01*
X75290436Y-98723889D01*
X76997800Y-98723889D01*
X77082448Y-98715552D01*
X77163842Y-98690861D01*
X77238856Y-98650766D01*
X77304606Y-98596806D01*
X77358566Y-98531056D01*
X77398661Y-98456042D01*
X77423352Y-98374648D01*
X77431689Y-98290000D01*
X77431689Y-97648184D01*
X98964941Y-97648184D01*
X99274880Y-98094966D01*
X99867650Y-98413537D01*
X100511181Y-98610343D01*
X101180742Y-98677821D01*
X101850602Y-98613377D01*
X102495018Y-98419489D01*
X103089226Y-98103606D01*
X103102160Y-98094966D01*
X103412099Y-97648184D01*
X101188520Y-95424605D01*
X98964941Y-97648184D01*
X77431689Y-97648184D01*
X77431689Y-97290000D01*
X77423352Y-97205352D01*
X77398661Y-97123958D01*
X77358566Y-97048944D01*
X77304606Y-96983194D01*
X77238856Y-96929234D01*
X77163842Y-96889139D01*
X77082448Y-96864448D01*
X76997800Y-96856111D01*
X75200098Y-96856111D01*
X75200098Y-96183889D01*
X76997800Y-96183889D01*
X77082448Y-96175552D01*
X77163842Y-96150861D01*
X77238856Y-96110766D01*
X77304606Y-96056806D01*
X77358566Y-95991056D01*
X77398661Y-95916042D01*
X77423352Y-95834648D01*
X77431689Y-95750000D01*
X77431689Y-94750000D01*
X77423352Y-94665352D01*
X77398661Y-94583958D01*
X77358566Y-94508944D01*
X77304606Y-94443194D01*
X77238856Y-94389234D01*
X77163842Y-94349139D01*
X77082448Y-94324448D01*
X76997800Y-94316111D01*
X75243096Y-94316111D01*
X75245910Y-94309148D01*
X75261238Y-94272683D01*
X75263001Y-94266844D01*
X75285042Y-94191954D01*
X75292462Y-94153056D01*
X75300420Y-94114285D01*
X75301016Y-94108215D01*
X75308091Y-94030469D01*
X75307814Y-93990844D01*
X75308090Y-93951296D01*
X75307495Y-93945226D01*
X75299335Y-93867587D01*
X75291378Y-93828824D01*
X75283956Y-93789917D01*
X75282193Y-93784079D01*
X75259108Y-93709504D01*
X75243769Y-93673013D01*
X75232002Y-93643889D01*
X75853899Y-93643889D01*
X76094874Y-93884864D01*
X76113091Y-93907061D01*
X76135287Y-93925277D01*
X76135291Y-93925281D01*
X76159722Y-93945331D01*
X76201681Y-93979766D01*
X76302754Y-94033790D01*
X76412423Y-94067058D01*
X76497894Y-94075476D01*
X76497901Y-94075476D01*
X76526475Y-94078290D01*
X76555049Y-94075476D01*
X76961614Y-94075476D01*
X76961987Y-94075725D01*
X77081516Y-94125236D01*
X77208409Y-94150476D01*
X77337787Y-94150476D01*
X77464680Y-94125236D01*
X77584209Y-94075725D01*
X77691784Y-94003846D01*
X77783268Y-93912362D01*
X77855147Y-93804787D01*
X77904658Y-93685258D01*
X77904746Y-93684817D01*
X77976944Y-93612619D01*
X79919277Y-93612619D01*
X79838272Y-93808182D01*
X79787860Y-94061619D01*
X79787860Y-94320021D01*
X79838272Y-94573458D01*
X79937158Y-94812190D01*
X80080719Y-95027044D01*
X80263436Y-95209761D01*
X80317402Y-95245820D01*
X80263436Y-95281879D01*
X80080719Y-95464596D01*
X79937158Y-95679450D01*
X79838272Y-95918182D01*
X79787860Y-96171619D01*
X79787860Y-96430021D01*
X79838272Y-96683458D01*
X79937158Y-96922190D01*
X80080719Y-97137044D01*
X80263436Y-97319761D01*
X80478290Y-97463322D01*
X80717022Y-97562208D01*
X80970459Y-97612620D01*
X81228861Y-97612620D01*
X81482298Y-97562208D01*
X81721030Y-97463322D01*
X81935884Y-97319761D01*
X82118601Y-97137044D01*
X82262162Y-96922190D01*
X82361048Y-96683458D01*
X82369660Y-96640163D01*
X82378272Y-96683458D01*
X82477158Y-96922190D01*
X82620719Y-97137044D01*
X82803436Y-97319761D01*
X83018290Y-97463322D01*
X83257022Y-97562208D01*
X83510459Y-97612620D01*
X83768861Y-97612620D01*
X84022298Y-97562208D01*
X84261030Y-97463322D01*
X84475884Y-97319761D01*
X84658601Y-97137044D01*
X84802162Y-96922190D01*
X84901048Y-96683458D01*
X84951460Y-96430021D01*
X84951460Y-96171619D01*
X84901048Y-95918182D01*
X84802162Y-95679450D01*
X84663484Y-95471904D01*
X84680702Y-95466681D01*
X84755716Y-95426586D01*
X84821466Y-95372626D01*
X84875426Y-95306876D01*
X84915521Y-95231862D01*
X84940212Y-95150468D01*
X84948549Y-95065820D01*
X84948549Y-93315820D01*
X84940212Y-93231172D01*
X84915521Y-93149778D01*
X84875426Y-93074764D01*
X84821466Y-93009014D01*
X84755716Y-92955054D01*
X84680702Y-92914959D01*
X84599308Y-92890268D01*
X84514660Y-92881931D01*
X83153560Y-92881931D01*
X82911265Y-92639636D01*
X82893044Y-92617434D01*
X82804454Y-92544729D01*
X82703381Y-92490705D01*
X82593712Y-92457437D01*
X82508241Y-92449019D01*
X82508233Y-92449019D01*
X82479659Y-92446205D01*
X82451085Y-92449019D01*
X77764529Y-92449019D01*
X77735955Y-92446205D01*
X77707381Y-92449019D01*
X77707373Y-92449019D01*
X77621902Y-92457437D01*
X77512233Y-92490705D01*
X77431689Y-92533756D01*
X77431689Y-92210000D01*
X77423352Y-92125352D01*
X77398661Y-92043958D01*
X77358566Y-91968944D01*
X77304606Y-91903194D01*
X77238856Y-91849234D01*
X77163842Y-91809139D01*
X77082448Y-91784448D01*
X76997800Y-91776111D01*
X75259797Y-91776111D01*
X75261238Y-91772683D01*
X75263001Y-91766844D01*
X75285042Y-91691954D01*
X75292462Y-91653056D01*
X75300420Y-91614285D01*
X75301016Y-91608215D01*
X75308091Y-91530469D01*
X75307814Y-91490844D01*
X75308090Y-91451296D01*
X75307495Y-91445226D01*
X75299335Y-91367587D01*
X75291378Y-91328824D01*
X75283956Y-91289917D01*
X75282193Y-91284079D01*
X75259108Y-91209504D01*
X75243769Y-91173013D01*
X75228937Y-91136304D01*
X75226074Y-91130918D01*
X75200098Y-91082877D01*
X75200098Y-90100805D01*
X75217755Y-89944098D01*
X75267469Y-89802022D01*
X75347552Y-89674571D01*
X75453993Y-89568130D01*
X75513919Y-89530476D01*
X97995740Y-89530476D01*
X97991137Y-89536085D01*
G37*
X97991137Y-89536085D02*
X93287740Y-94239483D01*
X93287740Y-94064159D01*
X93237328Y-93810722D01*
X93138442Y-93571990D01*
X92994881Y-93357136D01*
X92812164Y-93174419D01*
X92597310Y-93030858D01*
X92358578Y-92931972D01*
X92105141Y-92881560D01*
X91846739Y-92881560D01*
X91593302Y-92931972D01*
X91354570Y-93030858D01*
X91139716Y-93174419D01*
X90956999Y-93357136D01*
X90813438Y-93571990D01*
X90744829Y-93737627D01*
X90744829Y-93318360D01*
X90736492Y-93233712D01*
X90711801Y-93152318D01*
X90671706Y-93077304D01*
X90617746Y-93011554D01*
X90551996Y-92957594D01*
X90476982Y-92917499D01*
X90395588Y-92892808D01*
X90310940Y-92884471D01*
X88560940Y-92884471D01*
X88476292Y-92892808D01*
X88394898Y-92917499D01*
X88319884Y-92957594D01*
X88254134Y-93011554D01*
X88200174Y-93077304D01*
X88160079Y-93152318D01*
X88135388Y-93233712D01*
X88127051Y-93318360D01*
X88127051Y-95068360D01*
X88135388Y-95153008D01*
X88160079Y-95234402D01*
X88200174Y-95309416D01*
X88254134Y-95375166D01*
X88319884Y-95429126D01*
X88394898Y-95469221D01*
X88412116Y-95474444D01*
X88273438Y-95681990D01*
X88174552Y-95920722D01*
X88124140Y-96174159D01*
X88124140Y-96432561D01*
X88174552Y-96685998D01*
X88273438Y-96924730D01*
X88416999Y-97139584D01*
X88599716Y-97322301D01*
X88814570Y-97465862D01*
X89053302Y-97564748D01*
X89306739Y-97615160D01*
X89565141Y-97615160D01*
X89818578Y-97564748D01*
X90057310Y-97465862D01*
X90272164Y-97322301D01*
X90454881Y-97139584D01*
X90598442Y-96924730D01*
X90697328Y-96685998D01*
X90705940Y-96642703D01*
X90714552Y-96685998D01*
X90813438Y-96924730D01*
X90956999Y-97139584D01*
X91139716Y-97322301D01*
X91354570Y-97465862D01*
X91593302Y-97564748D01*
X91846739Y-97615160D01*
X92105141Y-97615160D01*
X92358578Y-97564748D01*
X92597310Y-97465862D01*
X92812164Y-97322301D01*
X92994881Y-97139584D01*
X93138442Y-96924730D01*
X93237328Y-96685998D01*
X93287740Y-96432561D01*
X93287740Y-96174159D01*
X93237328Y-95920722D01*
X93200226Y-95831151D01*
X93794155Y-95237222D01*
X97755699Y-95237222D01*
X97820143Y-95907082D01*
X98014031Y-96551498D01*
X98329914Y-97145706D01*
X98338554Y-97158640D01*
X98785336Y-97468579D01*
X101008915Y-95245000D01*
X101368125Y-95245000D01*
X103591704Y-97468579D01*
X104038486Y-97158640D01*
X104357057Y-96565870D01*
X104553863Y-95922339D01*
X104621341Y-95252778D01*
X104556897Y-94582918D01*
X104363009Y-93938502D01*
X104047126Y-93344294D01*
X104038486Y-93331360D01*
X103591704Y-93021421D01*
X101368125Y-95245000D01*
X101008915Y-95245000D01*
X98785336Y-93021421D01*
X98338554Y-93331360D01*
X98019983Y-93924130D01*
X97823177Y-94567661D01*
X97755699Y-95237222D01*
X93794155Y-95237222D01*
X96189561Y-92841816D01*
X98964941Y-92841816D01*
X101188520Y-95065395D01*
X103412099Y-92841816D01*
X103102160Y-92395034D01*
X102509390Y-92076463D01*
X101865859Y-91879657D01*
X101196298Y-91812179D01*
X100526438Y-91876623D01*
X99882022Y-92070511D01*
X99287814Y-92386394D01*
X99274880Y-92395034D01*
X98964941Y-92841816D01*
X96189561Y-92841816D01*
X98605933Y-90425445D01*
X113929290Y-90425445D01*
X111211180Y-93143556D01*
X111177126Y-93079844D01*
X111123166Y-93014094D01*
X111057416Y-92960134D01*
X110982402Y-92920039D01*
X110901008Y-92895348D01*
X110816360Y-92887011D01*
X109066360Y-92887011D01*
X108981712Y-92895348D01*
X108900318Y-92920039D01*
X108825304Y-92960134D01*
X108759554Y-93014094D01*
X108705594Y-93079844D01*
X108665499Y-93154858D01*
X108640808Y-93236252D01*
X108632471Y-93320900D01*
X108632471Y-95070900D01*
X108640808Y-95155548D01*
X108665499Y-95236942D01*
X108705594Y-95311956D01*
X108759554Y-95377706D01*
X108825304Y-95431666D01*
X108900318Y-95471761D01*
X108917536Y-95476984D01*
X108778858Y-95684530D01*
X108679972Y-95923262D01*
X108629560Y-96176699D01*
X108629560Y-96435101D01*
X108679972Y-96688538D01*
X108778858Y-96927270D01*
X108922419Y-97142124D01*
X109105136Y-97324841D01*
X109319990Y-97468402D01*
X109558722Y-97567288D01*
X109812159Y-97617700D01*
X110070561Y-97617700D01*
X110323998Y-97567288D01*
X110562730Y-97468402D01*
X110777584Y-97324841D01*
X110960301Y-97142124D01*
X111103862Y-96927270D01*
X111202748Y-96688538D01*
X111211360Y-96645243D01*
X111219972Y-96688538D01*
X111318858Y-96927270D01*
X111462419Y-97142124D01*
X111645136Y-97324841D01*
X111859990Y-97468402D01*
X112098722Y-97567288D01*
X112352159Y-97617700D01*
X112610561Y-97617700D01*
X112863998Y-97567288D01*
X113102730Y-97468402D01*
X113317584Y-97324841D01*
X113500301Y-97142124D01*
X113643862Y-96927270D01*
X113742748Y-96688538D01*
X113793160Y-96435101D01*
X113793160Y-96259778D01*
X116807268Y-99273887D01*
X116823922Y-99294180D01*
X116904899Y-99360636D01*
X116978507Y-99399980D01*
X116997285Y-99410017D01*
X117097529Y-99440426D01*
X117201780Y-99450694D01*
X117227904Y-99448121D01*
X137982522Y-99448121D01*
X137961987Y-99456627D01*
X137854412Y-99528506D01*
X137762928Y-99619990D01*
X137691049Y-99727565D01*
X137641538Y-99847094D01*
X137616298Y-99973987D01*
X137616298Y-100021896D01*
X79753397Y-100021896D01*
X78922303Y-99190804D01*
X78904658Y-99102094D01*
X78855147Y-98982565D01*
X78783268Y-98874990D01*
X78691784Y-98783506D01*
X78584209Y-98711627D01*
X78464680Y-98662116D01*
X78337787Y-98636876D01*
X78208409Y-98636876D01*
X78081516Y-98662116D01*
X77961987Y-98711627D01*
X77854412Y-98783506D01*
X77762928Y-98874990D01*
X77691049Y-98982565D01*
X77641538Y-99102094D01*
X77616298Y-99228987D01*
X77616298Y-99358365D01*
X77641538Y-99485258D01*
X77691049Y-99604787D01*
X77762928Y-99712362D01*
X77854412Y-99803846D01*
X77961987Y-99875725D01*
X78081516Y-99925236D01*
X78170226Y-99942881D01*
X79084219Y-100856876D01*
X75513919Y-100856876D01*
X75453993Y-100819222D01*
X75347552Y-100712781D01*
X75267469Y-100585330D01*
X75217755Y-100443254D01*
X75200098Y-100286547D01*
X75200098Y-99305123D01*
X75231065Y-99245889D01*
X75245910Y-99209148D01*
X75261238Y-99172683D01*
X75263001Y-99166844D01*
X75285042Y-99091954D01*
X75292462Y-99053056D01*
X75300420Y-99014285D01*
X75301016Y-99008215D01*
X75308091Y-98930469D01*
X75307814Y-98890844D01*
X75308090Y-98851296D01*
X75307495Y-98845226D01*
X75299335Y-98767587D01*
X75291378Y-98728824D01*
X75290436Y-98723889D01*
X76997800Y-98723889D01*
X77082448Y-98715552D01*
X77163842Y-98690861D01*
X77238856Y-98650766D01*
X77304606Y-98596806D01*
X77358566Y-98531056D01*
X77398661Y-98456042D01*
X77423352Y-98374648D01*
X77431689Y-98290000D01*
X77431689Y-97648184D01*
X98964941Y-97648184D01*
X99274880Y-98094966D01*
X99867650Y-98413537D01*
X100511181Y-98610343D01*
X101180742Y-98677821D01*
X101850602Y-98613377D01*
X102495018Y-98419489D01*
X103089226Y-98103606D01*
X103102160Y-98094966D01*
X103412099Y-97648184D01*
X101188520Y-95424605D01*
X98964941Y-97648184D01*
X77431689Y-97648184D01*
X77431689Y-97290000D01*
X77423352Y-97205352D01*
X77398661Y-97123958D01*
X77358566Y-97048944D01*
X77304606Y-96983194D01*
X77238856Y-96929234D01*
X77163842Y-96889139D01*
X77082448Y-96864448D01*
X76997800Y-96856111D01*
X75200098Y-96856111D01*
X75200098Y-96183889D01*
X76997800Y-96183889D01*
X77082448Y-96175552D01*
X77163842Y-96150861D01*
X77238856Y-96110766D01*
X77304606Y-96056806D01*
X77358566Y-95991056D01*
X77398661Y-95916042D01*
X77423352Y-95834648D01*
X77431689Y-95750000D01*
X77431689Y-94750000D01*
X77423352Y-94665352D01*
X77398661Y-94583958D01*
X77358566Y-94508944D01*
X77304606Y-94443194D01*
X77238856Y-94389234D01*
X77163842Y-94349139D01*
X77082448Y-94324448D01*
X76997800Y-94316111D01*
X75243096Y-94316111D01*
X75245910Y-94309148D01*
X75261238Y-94272683D01*
X75263001Y-94266844D01*
X75285042Y-94191954D01*
X75292462Y-94153056D01*
X75300420Y-94114285D01*
X75301016Y-94108215D01*
X75308091Y-94030469D01*
X75307814Y-93990844D01*
X75308090Y-93951296D01*
X75307495Y-93945226D01*
X75299335Y-93867587D01*
X75291378Y-93828824D01*
X75283956Y-93789917D01*
X75282193Y-93784079D01*
X75259108Y-93709504D01*
X75243769Y-93673013D01*
X75232002Y-93643889D01*
X75853899Y-93643889D01*
X76094874Y-93884864D01*
X76113091Y-93907061D01*
X76135287Y-93925277D01*
X76135291Y-93925281D01*
X76159722Y-93945331D01*
X76201681Y-93979766D01*
X76302754Y-94033790D01*
X76412423Y-94067058D01*
X76497894Y-94075476D01*
X76497901Y-94075476D01*
X76526475Y-94078290D01*
X76555049Y-94075476D01*
X76961614Y-94075476D01*
X76961987Y-94075725D01*
X77081516Y-94125236D01*
X77208409Y-94150476D01*
X77337787Y-94150476D01*
X77464680Y-94125236D01*
X77584209Y-94075725D01*
X77691784Y-94003846D01*
X77783268Y-93912362D01*
X77855147Y-93804787D01*
X77904658Y-93685258D01*
X77904746Y-93684817D01*
X77976944Y-93612619D01*
X79919277Y-93612619D01*
X79838272Y-93808182D01*
X79787860Y-94061619D01*
X79787860Y-94320021D01*
X79838272Y-94573458D01*
X79937158Y-94812190D01*
X80080719Y-95027044D01*
X80263436Y-95209761D01*
X80317402Y-95245820D01*
X80263436Y-95281879D01*
X80080719Y-95464596D01*
X79937158Y-95679450D01*
X79838272Y-95918182D01*
X79787860Y-96171619D01*
X79787860Y-96430021D01*
X79838272Y-96683458D01*
X79937158Y-96922190D01*
X80080719Y-97137044D01*
X80263436Y-97319761D01*
X80478290Y-97463322D01*
X80717022Y-97562208D01*
X80970459Y-97612620D01*
X81228861Y-97612620D01*
X81482298Y-97562208D01*
X81721030Y-97463322D01*
X81935884Y-97319761D01*
X82118601Y-97137044D01*
X82262162Y-96922190D01*
X82361048Y-96683458D01*
X82369660Y-96640163D01*
X82378272Y-96683458D01*
X82477158Y-96922190D01*
X82620719Y-97137044D01*
X82803436Y-97319761D01*
X83018290Y-97463322D01*
X83257022Y-97562208D01*
X83510459Y-97612620D01*
X83768861Y-97612620D01*
X84022298Y-97562208D01*
X84261030Y-97463322D01*
X84475884Y-97319761D01*
X84658601Y-97137044D01*
X84802162Y-96922190D01*
X84901048Y-96683458D01*
X84951460Y-96430021D01*
X84951460Y-96171619D01*
X84901048Y-95918182D01*
X84802162Y-95679450D01*
X84663484Y-95471904D01*
X84680702Y-95466681D01*
X84755716Y-95426586D01*
X84821466Y-95372626D01*
X84875426Y-95306876D01*
X84915521Y-95231862D01*
X84940212Y-95150468D01*
X84948549Y-95065820D01*
X84948549Y-93315820D01*
X84940212Y-93231172D01*
X84915521Y-93149778D01*
X84875426Y-93074764D01*
X84821466Y-93009014D01*
X84755716Y-92955054D01*
X84680702Y-92914959D01*
X84599308Y-92890268D01*
X84514660Y-92881931D01*
X83153560Y-92881931D01*
X82911265Y-92639636D01*
X82893044Y-92617434D01*
X82804454Y-92544729D01*
X82703381Y-92490705D01*
X82593712Y-92457437D01*
X82508241Y-92449019D01*
X82508233Y-92449019D01*
X82479659Y-92446205D01*
X82451085Y-92449019D01*
X77764529Y-92449019D01*
X77735955Y-92446205D01*
X77707381Y-92449019D01*
X77707373Y-92449019D01*
X77621902Y-92457437D01*
X77512233Y-92490705D01*
X77431689Y-92533756D01*
X77431689Y-92210000D01*
X77423352Y-92125352D01*
X77398661Y-92043958D01*
X77358566Y-91968944D01*
X77304606Y-91903194D01*
X77238856Y-91849234D01*
X77163842Y-91809139D01*
X77082448Y-91784448D01*
X76997800Y-91776111D01*
X75259797Y-91776111D01*
X75261238Y-91772683D01*
X75263001Y-91766844D01*
X75285042Y-91691954D01*
X75292462Y-91653056D01*
X75300420Y-91614285D01*
X75301016Y-91608215D01*
X75308091Y-91530469D01*
X75307814Y-91490844D01*
X75308090Y-91451296D01*
X75307495Y-91445226D01*
X75299335Y-91367587D01*
X75291378Y-91328824D01*
X75283956Y-91289917D01*
X75282193Y-91284079D01*
X75259108Y-91209504D01*
X75243769Y-91173013D01*
X75228937Y-91136304D01*
X75226074Y-91130918D01*
X75200098Y-91082877D01*
X75200098Y-90100805D01*
X75217755Y-89944098D01*
X75267469Y-89802022D01*
X75347552Y-89674571D01*
X75453993Y-89568130D01*
X75513919Y-89530476D01*
X97995740Y-89530476D01*
X97991137Y-89536085D01*
G36*
X246505509Y-92094875D02*
G01*
X246523725Y-92117071D01*
X246545921Y-92135287D01*
X246545925Y-92135291D01*
X246600118Y-92179766D01*
X246612315Y-92189776D01*
X246713388Y-92243800D01*
X246823057Y-92277068D01*
X246908528Y-92285486D01*
X246908536Y-92285486D01*
X246937110Y-92288300D01*
X246965684Y-92285486D01*
X247961298Y-92285486D01*
X247961298Y-92428214D01*
X247990381Y-92574426D01*
X248047430Y-92712155D01*
X248130253Y-92836108D01*
X248235666Y-92941521D01*
X248359619Y-93024344D01*
X248497348Y-93081393D01*
X248643560Y-93110476D01*
X248792636Y-93110476D01*
X248938848Y-93081393D01*
X249076577Y-93024344D01*
X249200530Y-92941521D01*
X249305943Y-92836108D01*
X249388766Y-92712155D01*
X249445815Y-92574426D01*
X249474898Y-92428214D01*
X249474898Y-92285486D01*
X249589209Y-92285486D01*
X249589209Y-92293676D01*
X249597546Y-92378324D01*
X249622237Y-92459718D01*
X249662332Y-92534732D01*
X249716292Y-92600482D01*
X249782042Y-92654442D01*
X249857056Y-92694537D01*
X249938450Y-92719228D01*
X250023098Y-92727565D01*
X251423098Y-92727565D01*
X251507746Y-92719228D01*
X251589140Y-92694537D01*
X251664154Y-92654442D01*
X251729904Y-92600482D01*
X251783864Y-92534732D01*
X251823959Y-92459718D01*
X251848650Y-92378324D01*
X251856987Y-92293676D01*
X251856987Y-91833364D01*
X251885433Y-91841993D01*
X252022328Y-91855476D01*
X252102660Y-91855476D01*
X252076913Y-93374508D01*
X252060543Y-93385717D01*
X252027539Y-93407645D01*
X252022841Y-93411532D01*
X252022834Y-93411537D01*
X252022828Y-93411543D01*
X251977988Y-93449168D01*
X251950305Y-93477437D01*
X251922194Y-93505353D01*
X251918339Y-93510079D01*
X251881652Y-93555709D01*
X251859974Y-93588837D01*
X251837840Y-93621653D01*
X251834976Y-93627038D01*
X251807850Y-93678926D01*
X251793018Y-93715636D01*
X251777678Y-93752130D01*
X251775914Y-93757968D01*
X251759383Y-93814136D01*
X251751958Y-93853064D01*
X251744006Y-93891800D01*
X251743410Y-93897870D01*
X251738103Y-93956178D01*
X251738379Y-93995768D01*
X251738103Y-94035357D01*
X251738698Y-94041427D01*
X251744818Y-94099656D01*
X251752781Y-94138452D01*
X251760197Y-94177326D01*
X251761958Y-94183157D01*
X251761959Y-94183164D01*
X251761960Y-94183166D01*
X251779274Y-94239098D01*
X251794622Y-94275609D01*
X251809447Y-94312301D01*
X251812310Y-94317686D01*
X251840158Y-94369189D01*
X251862303Y-94402021D01*
X251883973Y-94435135D01*
X251887826Y-94439859D01*
X251887829Y-94439864D01*
X251887833Y-94439868D01*
X251925149Y-94484975D01*
X251953244Y-94512874D01*
X251980940Y-94541156D01*
X251985639Y-94545044D01*
X252031012Y-94582049D01*
X252036298Y-94585561D01*
X252036299Y-95770775D01*
X252032338Y-96004457D01*
X252027539Y-96007645D01*
X252022841Y-96011532D01*
X252022834Y-96011537D01*
X252022828Y-96011543D01*
X251977988Y-96049168D01*
X251950305Y-96077437D01*
X251922194Y-96105353D01*
X251918339Y-96110079D01*
X251881652Y-96155709D01*
X251859974Y-96188837D01*
X251837840Y-96221653D01*
X251834976Y-96227038D01*
X251807850Y-96278926D01*
X251793018Y-96315636D01*
X251777678Y-96352130D01*
X251775914Y-96357968D01*
X251759383Y-96414136D01*
X251751958Y-96453064D01*
X251744006Y-96491800D01*
X251743410Y-96497870D01*
X251738103Y-96556178D01*
X251738379Y-96595768D01*
X251738103Y-96635357D01*
X251738698Y-96641427D01*
X251744818Y-96699656D01*
X251752781Y-96738452D01*
X251760197Y-96777326D01*
X251761958Y-96783157D01*
X251761959Y-96783164D01*
X251761960Y-96783166D01*
X251779274Y-96839098D01*
X251794622Y-96875609D01*
X251809447Y-96912301D01*
X251812310Y-96917686D01*
X251840158Y-96969189D01*
X251862303Y-97002021D01*
X251883973Y-97035135D01*
X251887826Y-97039859D01*
X251887829Y-97039864D01*
X251887833Y-97039868D01*
X251925149Y-97084975D01*
X251953244Y-97112874D01*
X251980940Y-97141156D01*
X251985639Y-97145044D01*
X252012633Y-97167060D01*
X251987748Y-98635282D01*
X251885433Y-98645359D01*
X251856987Y-98653988D01*
X251856987Y-98293676D01*
X251848650Y-98209028D01*
X251823959Y-98127634D01*
X251783864Y-98052620D01*
X251729904Y-97986870D01*
X251664154Y-97932910D01*
X251589140Y-97892815D01*
X251507746Y-97868124D01*
X251423098Y-97859787D01*
X250023098Y-97859787D01*
X249938450Y-97868124D01*
X249857056Y-97892815D01*
X249782042Y-97932910D01*
X249716292Y-97986870D01*
X249662332Y-98052620D01*
X249622237Y-98127634D01*
X249597546Y-98209028D01*
X249589209Y-98293676D01*
X249589209Y-99179314D01*
X249516610Y-99043491D01*
X249400168Y-98901606D01*
X249258283Y-98785164D01*
X249173280Y-98739729D01*
X249200530Y-98721521D01*
X249305943Y-98616108D01*
X249388766Y-98492155D01*
X249445815Y-98354426D01*
X249474898Y-98208214D01*
X249474898Y-98059138D01*
X249445815Y-97912926D01*
X249388766Y-97775197D01*
X249305943Y-97651244D01*
X249200530Y-97545831D01*
X249076577Y-97463008D01*
X248938848Y-97405959D01*
X248792636Y-97376876D01*
X248643560Y-97376876D01*
X248497348Y-97405959D01*
X248359619Y-97463008D01*
X248352705Y-97467628D01*
X248273098Y-97459787D01*
X247661999Y-97459787D01*
X246804704Y-96602493D01*
X246786483Y-96580291D01*
X246697893Y-96507586D01*
X246596820Y-96453562D01*
X246487151Y-96420294D01*
X246401680Y-96411876D01*
X246401672Y-96411876D01*
X246373098Y-96409062D01*
X246344524Y-96411876D01*
X245519578Y-96411876D01*
X245419735Y-96345163D01*
X245286556Y-96289999D01*
X245145174Y-96261876D01*
X245001022Y-96261876D01*
X244859640Y-96289999D01*
X244726461Y-96345163D01*
X244606603Y-96425250D01*
X244504672Y-96527181D01*
X244424585Y-96647039D01*
X244369421Y-96780218D01*
X244341298Y-96921600D01*
X244341298Y-97065752D01*
X244369421Y-97207134D01*
X244424585Y-97340313D01*
X244504672Y-97460171D01*
X244606603Y-97562102D01*
X244726461Y-97642189D01*
X244859640Y-97697353D01*
X245001022Y-97725476D01*
X245145174Y-97725476D01*
X245286556Y-97697353D01*
X245419735Y-97642189D01*
X245519578Y-97575476D01*
X246132109Y-97575476D01*
X246839209Y-98282577D01*
X246839209Y-98893676D01*
X246847546Y-98978324D01*
X246865229Y-99036615D01*
X246859586Y-99043491D01*
X246773062Y-99205366D01*
X246719781Y-99381011D01*
X246701790Y-99563676D01*
X246719781Y-99746341D01*
X246724496Y-99761886D01*
X244456987Y-99761886D01*
X244456987Y-98293676D01*
X244448650Y-98209028D01*
X244423959Y-98127634D01*
X244383864Y-98052620D01*
X244329904Y-97986870D01*
X244264154Y-97932910D01*
X244189140Y-97892815D01*
X244107746Y-97868124D01*
X244023098Y-97859787D01*
X242223098Y-97859787D01*
X242138450Y-97868124D01*
X242057056Y-97892815D01*
X241982042Y-97932910D01*
X241916292Y-97986870D01*
X241862332Y-98052620D01*
X241822237Y-98127634D01*
X241797546Y-98209028D01*
X241789209Y-98293676D01*
X241789209Y-98315022D01*
X241566654Y-98315022D01*
X241697897Y-98183778D01*
X241722010Y-98163990D01*
X241800962Y-98067786D01*
X241846010Y-97983506D01*
X241859629Y-97958028D01*
X241895756Y-97838932D01*
X241907955Y-97715078D01*
X241904898Y-97684041D01*
X241904898Y-95187128D01*
X242041298Y-95187128D01*
X242041298Y-95400224D01*
X242082871Y-95609225D01*
X242164420Y-95806100D01*
X242282809Y-95983283D01*
X242433491Y-96133965D01*
X242610674Y-96252354D01*
X242807549Y-96333903D01*
X243016550Y-96375476D01*
X243229646Y-96375476D01*
X243438647Y-96333903D01*
X243635522Y-96252354D01*
X243812705Y-96133965D01*
X243963387Y-95983283D01*
X244081776Y-95806100D01*
X244163325Y-95609225D01*
X244204898Y-95400224D01*
X244204898Y-95187128D01*
X244163325Y-94978127D01*
X244081776Y-94781252D01*
X243963387Y-94604069D01*
X243812705Y-94453387D01*
X243635522Y-94334998D01*
X243438647Y-94253449D01*
X243229646Y-94211876D01*
X243016550Y-94211876D01*
X242807549Y-94253449D01*
X242610674Y-94334998D01*
X242433491Y-94453387D01*
X242282809Y-94604069D01*
X242164420Y-94781252D01*
X242082871Y-94978127D01*
X242041298Y-95187128D01*
X241904898Y-95187128D01*
X241904898Y-94708930D01*
X241958037Y-94655791D01*
X242054539Y-94511365D01*
X242121011Y-94350888D01*
X242154898Y-94180526D01*
X242154898Y-94105375D01*
X243536330Y-92723944D01*
X243573098Y-92727565D01*
X245373098Y-92727565D01*
X245457746Y-92719228D01*
X245539140Y-92694537D01*
X245614154Y-92654442D01*
X245679904Y-92600482D01*
X245733864Y-92534732D01*
X245773959Y-92459718D01*
X245798650Y-92378324D01*
X245806987Y-92293676D01*
X245806987Y-91396352D01*
X246505509Y-92094875D01*
G37*
X246505509Y-92094875D02*
X246523725Y-92117071D01*
X246545921Y-92135287D01*
X246545925Y-92135291D01*
X246600118Y-92179766D01*
X246612315Y-92189776D01*
X246713388Y-92243800D01*
X246823057Y-92277068D01*
X246908528Y-92285486D01*
X246908536Y-92285486D01*
X246937110Y-92288300D01*
X246965684Y-92285486D01*
X247961298Y-92285486D01*
X247961298Y-92428214D01*
X247990381Y-92574426D01*
X248047430Y-92712155D01*
X248130253Y-92836108D01*
X248235666Y-92941521D01*
X248359619Y-93024344D01*
X248497348Y-93081393D01*
X248643560Y-93110476D01*
X248792636Y-93110476D01*
X248938848Y-93081393D01*
X249076577Y-93024344D01*
X249200530Y-92941521D01*
X249305943Y-92836108D01*
X249388766Y-92712155D01*
X249445815Y-92574426D01*
X249474898Y-92428214D01*
X249474898Y-92285486D01*
X249589209Y-92285486D01*
X249589209Y-92293676D01*
X249597546Y-92378324D01*
X249622237Y-92459718D01*
X249662332Y-92534732D01*
X249716292Y-92600482D01*
X249782042Y-92654442D01*
X249857056Y-92694537D01*
X249938450Y-92719228D01*
X250023098Y-92727565D01*
X251423098Y-92727565D01*
X251507746Y-92719228D01*
X251589140Y-92694537D01*
X251664154Y-92654442D01*
X251729904Y-92600482D01*
X251783864Y-92534732D01*
X251823959Y-92459718D01*
X251848650Y-92378324D01*
X251856987Y-92293676D01*
X251856987Y-91833364D01*
X251885433Y-91841993D01*
X252022328Y-91855476D01*
X252102660Y-91855476D01*
X252076913Y-93374508D01*
X252060543Y-93385717D01*
X252027539Y-93407645D01*
X252022841Y-93411532D01*
X252022834Y-93411537D01*
X252022828Y-93411543D01*
X251977988Y-93449168D01*
X251950305Y-93477437D01*
X251922194Y-93505353D01*
X251918339Y-93510079D01*
X251881652Y-93555709D01*
X251859974Y-93588837D01*
X251837840Y-93621653D01*
X251834976Y-93627038D01*
X251807850Y-93678926D01*
X251793018Y-93715636D01*
X251777678Y-93752130D01*
X251775914Y-93757968D01*
X251759383Y-93814136D01*
X251751958Y-93853064D01*
X251744006Y-93891800D01*
X251743410Y-93897870D01*
X251738103Y-93956178D01*
X251738379Y-93995768D01*
X251738103Y-94035357D01*
X251738698Y-94041427D01*
X251744818Y-94099656D01*
X251752781Y-94138452D01*
X251760197Y-94177326D01*
X251761958Y-94183157D01*
X251761959Y-94183164D01*
X251761960Y-94183166D01*
X251779274Y-94239098D01*
X251794622Y-94275609D01*
X251809447Y-94312301D01*
X251812310Y-94317686D01*
X251840158Y-94369189D01*
X251862303Y-94402021D01*
X251883973Y-94435135D01*
X251887826Y-94439859D01*
X251887829Y-94439864D01*
X251887833Y-94439868D01*
X251925149Y-94484975D01*
X251953244Y-94512874D01*
X251980940Y-94541156D01*
X251985639Y-94545044D01*
X252031012Y-94582049D01*
X252036298Y-94585561D01*
X252036299Y-95770775D01*
X252032338Y-96004457D01*
X252027539Y-96007645D01*
X252022841Y-96011532D01*
X252022834Y-96011537D01*
X252022828Y-96011543D01*
X251977988Y-96049168D01*
X251950305Y-96077437D01*
X251922194Y-96105353D01*
X251918339Y-96110079D01*
X251881652Y-96155709D01*
X251859974Y-96188837D01*
X251837840Y-96221653D01*
X251834976Y-96227038D01*
X251807850Y-96278926D01*
X251793018Y-96315636D01*
X251777678Y-96352130D01*
X251775914Y-96357968D01*
X251759383Y-96414136D01*
X251751958Y-96453064D01*
X251744006Y-96491800D01*
X251743410Y-96497870D01*
X251738103Y-96556178D01*
X251738379Y-96595768D01*
X251738103Y-96635357D01*
X251738698Y-96641427D01*
X251744818Y-96699656D01*
X251752781Y-96738452D01*
X251760197Y-96777326D01*
X251761958Y-96783157D01*
X251761959Y-96783164D01*
X251761960Y-96783166D01*
X251779274Y-96839098D01*
X251794622Y-96875609D01*
X251809447Y-96912301D01*
X251812310Y-96917686D01*
X251840158Y-96969189D01*
X251862303Y-97002021D01*
X251883973Y-97035135D01*
X251887826Y-97039859D01*
X251887829Y-97039864D01*
X251887833Y-97039868D01*
X251925149Y-97084975D01*
X251953244Y-97112874D01*
X251980940Y-97141156D01*
X251985639Y-97145044D01*
X252012633Y-97167060D01*
X251987748Y-98635282D01*
X251885433Y-98645359D01*
X251856987Y-98653988D01*
X251856987Y-98293676D01*
X251848650Y-98209028D01*
X251823959Y-98127634D01*
X251783864Y-98052620D01*
X251729904Y-97986870D01*
X251664154Y-97932910D01*
X251589140Y-97892815D01*
X251507746Y-97868124D01*
X251423098Y-97859787D01*
X250023098Y-97859787D01*
X249938450Y-97868124D01*
X249857056Y-97892815D01*
X249782042Y-97932910D01*
X249716292Y-97986870D01*
X249662332Y-98052620D01*
X249622237Y-98127634D01*
X249597546Y-98209028D01*
X249589209Y-98293676D01*
X249589209Y-99179314D01*
X249516610Y-99043491D01*
X249400168Y-98901606D01*
X249258283Y-98785164D01*
X249173280Y-98739729D01*
X249200530Y-98721521D01*
X249305943Y-98616108D01*
X249388766Y-98492155D01*
X249445815Y-98354426D01*
X249474898Y-98208214D01*
X249474898Y-98059138D01*
X249445815Y-97912926D01*
X249388766Y-97775197D01*
X249305943Y-97651244D01*
X249200530Y-97545831D01*
X249076577Y-97463008D01*
X248938848Y-97405959D01*
X248792636Y-97376876D01*
X248643560Y-97376876D01*
X248497348Y-97405959D01*
X248359619Y-97463008D01*
X248352705Y-97467628D01*
X248273098Y-97459787D01*
X247661999Y-97459787D01*
X246804704Y-96602493D01*
X246786483Y-96580291D01*
X246697893Y-96507586D01*
X246596820Y-96453562D01*
X246487151Y-96420294D01*
X246401680Y-96411876D01*
X246401672Y-96411876D01*
X246373098Y-96409062D01*
X246344524Y-96411876D01*
X245519578Y-96411876D01*
X245419735Y-96345163D01*
X245286556Y-96289999D01*
X245145174Y-96261876D01*
X245001022Y-96261876D01*
X244859640Y-96289999D01*
X244726461Y-96345163D01*
X244606603Y-96425250D01*
X244504672Y-96527181D01*
X244424585Y-96647039D01*
X244369421Y-96780218D01*
X244341298Y-96921600D01*
X244341298Y-97065752D01*
X244369421Y-97207134D01*
X244424585Y-97340313D01*
X244504672Y-97460171D01*
X244606603Y-97562102D01*
X244726461Y-97642189D01*
X244859640Y-97697353D01*
X245001022Y-97725476D01*
X245145174Y-97725476D01*
X245286556Y-97697353D01*
X245419735Y-97642189D01*
X245519578Y-97575476D01*
X246132109Y-97575476D01*
X246839209Y-98282577D01*
X246839209Y-98893676D01*
X246847546Y-98978324D01*
X246865229Y-99036615D01*
X246859586Y-99043491D01*
X246773062Y-99205366D01*
X246719781Y-99381011D01*
X246701790Y-99563676D01*
X246719781Y-99746341D01*
X246724496Y-99761886D01*
X244456987Y-99761886D01*
X244456987Y-98293676D01*
X244448650Y-98209028D01*
X244423959Y-98127634D01*
X244383864Y-98052620D01*
X244329904Y-97986870D01*
X244264154Y-97932910D01*
X244189140Y-97892815D01*
X244107746Y-97868124D01*
X244023098Y-97859787D01*
X242223098Y-97859787D01*
X242138450Y-97868124D01*
X242057056Y-97892815D01*
X241982042Y-97932910D01*
X241916292Y-97986870D01*
X241862332Y-98052620D01*
X241822237Y-98127634D01*
X241797546Y-98209028D01*
X241789209Y-98293676D01*
X241789209Y-98315022D01*
X241566654Y-98315022D01*
X241697897Y-98183778D01*
X241722010Y-98163990D01*
X241800962Y-98067786D01*
X241846010Y-97983506D01*
X241859629Y-97958028D01*
X241895756Y-97838932D01*
X241907955Y-97715078D01*
X241904898Y-97684041D01*
X241904898Y-95187128D01*
X242041298Y-95187128D01*
X242041298Y-95400224D01*
X242082871Y-95609225D01*
X242164420Y-95806100D01*
X242282809Y-95983283D01*
X242433491Y-96133965D01*
X242610674Y-96252354D01*
X242807549Y-96333903D01*
X243016550Y-96375476D01*
X243229646Y-96375476D01*
X243438647Y-96333903D01*
X243635522Y-96252354D01*
X243812705Y-96133965D01*
X243963387Y-95983283D01*
X244081776Y-95806100D01*
X244163325Y-95609225D01*
X244204898Y-95400224D01*
X244204898Y-95187128D01*
X244163325Y-94978127D01*
X244081776Y-94781252D01*
X243963387Y-94604069D01*
X243812705Y-94453387D01*
X243635522Y-94334998D01*
X243438647Y-94253449D01*
X243229646Y-94211876D01*
X243016550Y-94211876D01*
X242807549Y-94253449D01*
X242610674Y-94334998D01*
X242433491Y-94453387D01*
X242282809Y-94604069D01*
X242164420Y-94781252D01*
X242082871Y-94978127D01*
X242041298Y-95187128D01*
X241904898Y-95187128D01*
X241904898Y-94708930D01*
X241958037Y-94655791D01*
X242054539Y-94511365D01*
X242121011Y-94350888D01*
X242154898Y-94180526D01*
X242154898Y-94105375D01*
X243536330Y-92723944D01*
X243573098Y-92727565D01*
X245373098Y-92727565D01*
X245457746Y-92719228D01*
X245539140Y-92694537D01*
X245614154Y-92654442D01*
X245679904Y-92600482D01*
X245733864Y-92534732D01*
X245773959Y-92459718D01*
X245798650Y-92378324D01*
X245806987Y-92293676D01*
X245806987Y-91396352D01*
X246505509Y-92094875D01*
G36*
X159816298Y-99558365D02*
G01*
X159841538Y-99685258D01*
X159844283Y-99691886D01*
X138831307Y-99691886D01*
X138783268Y-99619990D01*
X138691784Y-99528506D01*
X138584209Y-99456627D01*
X138563674Y-99448121D01*
X159816298Y-99448121D01*
X159816298Y-99558365D01*
G37*
X159816298Y-99558365D02*
X159841538Y-99685258D01*
X159844283Y-99691886D01*
X138831307Y-99691886D01*
X138783268Y-99619990D01*
X138691784Y-99528506D01*
X138584209Y-99456627D01*
X138563674Y-99448121D01*
X159816298Y-99448121D01*
X159816298Y-99558365D01*
G36*
X234841538Y-94398482D02*
G01*
X234891049Y-94518011D01*
X234962928Y-94625586D01*
X235054412Y-94717070D01*
X235161987Y-94788949D01*
X235281516Y-94838460D01*
X235408409Y-94863700D01*
X235537787Y-94863700D01*
X235664680Y-94838460D01*
X235784209Y-94788949D01*
X235784582Y-94788700D01*
X235945333Y-94788700D01*
X239441451Y-98284819D01*
X239441538Y-98285258D01*
X239491049Y-98404787D01*
X239562928Y-98512362D01*
X239572621Y-98522055D01*
X239519707Y-98574970D01*
X239495589Y-98594763D01*
X239421693Y-98684807D01*
X238838301Y-99268200D01*
X237341122Y-99268200D01*
X236654898Y-98581977D01*
X236654898Y-98506826D01*
X236621011Y-98336464D01*
X236554539Y-98175987D01*
X236458037Y-98031561D01*
X236366057Y-97939581D01*
X236377175Y-97912741D01*
X236402415Y-97785848D01*
X236402415Y-97656470D01*
X236377175Y-97529577D01*
X236327664Y-97410048D01*
X236255785Y-97302473D01*
X236164301Y-97210989D01*
X236056726Y-97139110D01*
X235937197Y-97089599D01*
X235848488Y-97071954D01*
X235732643Y-96956110D01*
X235715981Y-96935807D01*
X235635004Y-96869351D01*
X235542618Y-96819970D01*
X235442373Y-96789561D01*
X235364246Y-96781866D01*
X235364245Y-96781866D01*
X235338122Y-96779293D01*
X235311999Y-96781866D01*
X226545936Y-96781866D01*
X226519812Y-96779293D01*
X226493688Y-96781866D01*
X226470275Y-96784172D01*
X226470166Y-96783061D01*
X226470166Y-96190928D01*
X226476799Y-96123581D01*
X226476799Y-96123571D01*
X226479613Y-96095000D01*
X226476799Y-96066428D01*
X226476799Y-95649021D01*
X226508909Y-95709095D01*
X226581614Y-95797686D01*
X226603817Y-95815907D01*
X226825989Y-96038079D01*
X226844214Y-96060286D01*
X226932804Y-96132991D01*
X227033877Y-96187015D01*
X227143546Y-96220283D01*
X227229017Y-96228701D01*
X227229026Y-96228701D01*
X227257598Y-96231515D01*
X227286170Y-96228701D01*
X227713827Y-96228701D01*
X227742401Y-96231515D01*
X227770975Y-96228701D01*
X227770983Y-96228701D01*
X227856454Y-96220283D01*
X227966123Y-96187015D01*
X228067196Y-96132991D01*
X228155786Y-96060286D01*
X228174007Y-96038084D01*
X229936616Y-94275476D01*
X234817071Y-94275476D01*
X234841538Y-94398482D01*
G37*
X234841538Y-94398482D02*
X234891049Y-94518011D01*
X234962928Y-94625586D01*
X235054412Y-94717070D01*
X235161987Y-94788949D01*
X235281516Y-94838460D01*
X235408409Y-94863700D01*
X235537787Y-94863700D01*
X235664680Y-94838460D01*
X235784209Y-94788949D01*
X235784582Y-94788700D01*
X235945333Y-94788700D01*
X239441451Y-98284819D01*
X239441538Y-98285258D01*
X239491049Y-98404787D01*
X239562928Y-98512362D01*
X239572621Y-98522055D01*
X239519707Y-98574970D01*
X239495589Y-98594763D01*
X239421693Y-98684807D01*
X238838301Y-99268200D01*
X237341122Y-99268200D01*
X236654898Y-98581977D01*
X236654898Y-98506826D01*
X236621011Y-98336464D01*
X236554539Y-98175987D01*
X236458037Y-98031561D01*
X236366057Y-97939581D01*
X236377175Y-97912741D01*
X236402415Y-97785848D01*
X236402415Y-97656470D01*
X236377175Y-97529577D01*
X236327664Y-97410048D01*
X236255785Y-97302473D01*
X236164301Y-97210989D01*
X236056726Y-97139110D01*
X235937197Y-97089599D01*
X235848488Y-97071954D01*
X235732643Y-96956110D01*
X235715981Y-96935807D01*
X235635004Y-96869351D01*
X235542618Y-96819970D01*
X235442373Y-96789561D01*
X235364246Y-96781866D01*
X235364245Y-96781866D01*
X235338122Y-96779293D01*
X235311999Y-96781866D01*
X226545936Y-96781866D01*
X226519812Y-96779293D01*
X226493688Y-96781866D01*
X226470275Y-96784172D01*
X226470166Y-96783061D01*
X226470166Y-96190928D01*
X226476799Y-96123581D01*
X226476799Y-96123571D01*
X226479613Y-96095000D01*
X226476799Y-96066428D01*
X226476799Y-95649021D01*
X226508909Y-95709095D01*
X226581614Y-95797686D01*
X226603817Y-95815907D01*
X226825989Y-96038079D01*
X226844214Y-96060286D01*
X226932804Y-96132991D01*
X227033877Y-96187015D01*
X227143546Y-96220283D01*
X227229017Y-96228701D01*
X227229026Y-96228701D01*
X227257598Y-96231515D01*
X227286170Y-96228701D01*
X227713827Y-96228701D01*
X227742401Y-96231515D01*
X227770975Y-96228701D01*
X227770983Y-96228701D01*
X227856454Y-96220283D01*
X227966123Y-96187015D01*
X228067196Y-96132991D01*
X228155786Y-96060286D01*
X228174007Y-96038084D01*
X229936616Y-94275476D01*
X234817071Y-94275476D01*
X234841538Y-94398482D01*
G36*
X137300860Y-94269758D02*
G01*
X137300860Y-94059079D01*
X137250448Y-93805642D01*
X137151562Y-93566910D01*
X137008001Y-93352056D01*
X136825284Y-93169339D01*
X136610430Y-93025778D01*
X136371698Y-92926892D01*
X136118261Y-92876480D01*
X135859859Y-92876480D01*
X135606422Y-92926892D01*
X135367690Y-93025778D01*
X135152836Y-93169339D01*
X134970119Y-93352056D01*
X134826558Y-93566910D01*
X134757949Y-93732547D01*
X134757949Y-93313280D01*
X134749612Y-93228632D01*
X134724921Y-93147238D01*
X134684826Y-93072224D01*
X134630866Y-93006474D01*
X134565116Y-92952514D01*
X134490102Y-92912419D01*
X134408708Y-92887728D01*
X134324060Y-92879391D01*
X133033670Y-92879391D01*
X132352764Y-92198485D01*
X132332971Y-92174367D01*
X132236767Y-92095415D01*
X132127008Y-92036748D01*
X132007913Y-92000621D01*
X131915096Y-91991479D01*
X131884059Y-91988422D01*
X131853022Y-91991479D01*
X130863473Y-91991479D01*
X130737787Y-91966479D01*
X130608409Y-91966479D01*
X130481516Y-91991719D01*
X130361987Y-92041230D01*
X130254412Y-92113109D01*
X130162928Y-92204593D01*
X130091049Y-92312168D01*
X130041538Y-92431697D01*
X130016298Y-92558590D01*
X130016298Y-92687968D01*
X130041538Y-92814861D01*
X130091049Y-92934390D01*
X130162928Y-93041965D01*
X130254412Y-93133449D01*
X130361987Y-93205328D01*
X130481516Y-93254839D01*
X130608409Y-93280079D01*
X130737787Y-93280079D01*
X130863473Y-93255079D01*
X131622360Y-93255079D01*
X132140171Y-93772890D01*
X132140171Y-95063280D01*
X132148508Y-95147928D01*
X132173199Y-95229322D01*
X132213294Y-95304336D01*
X132267254Y-95370086D01*
X132333004Y-95424046D01*
X132408018Y-95464141D01*
X132425236Y-95469364D01*
X132286558Y-95676910D01*
X132187672Y-95915642D01*
X132137260Y-96169079D01*
X132137260Y-96427481D01*
X132187672Y-96680918D01*
X132286558Y-96919650D01*
X132430119Y-97134504D01*
X132612836Y-97317221D01*
X132827690Y-97460782D01*
X133066422Y-97559668D01*
X133319859Y-97610080D01*
X133578261Y-97610080D01*
X133831698Y-97559668D01*
X133921269Y-97522566D01*
X134783223Y-98384521D01*
X117422060Y-98384521D01*
X113705646Y-94668109D01*
X113742748Y-94578538D01*
X113793160Y-94325101D01*
X113793160Y-94066699D01*
X113742748Y-93813262D01*
X113643862Y-93574530D01*
X113500301Y-93359676D01*
X113317584Y-93176959D01*
X113102730Y-93033398D01*
X112863998Y-92934512D01*
X112855382Y-92932798D01*
X115082726Y-90705455D01*
X140865162Y-90705455D01*
X137300860Y-94269758D01*
G37*
X137300860Y-94269758D02*
X137300860Y-94059079D01*
X137250448Y-93805642D01*
X137151562Y-93566910D01*
X137008001Y-93352056D01*
X136825284Y-93169339D01*
X136610430Y-93025778D01*
X136371698Y-92926892D01*
X136118261Y-92876480D01*
X135859859Y-92876480D01*
X135606422Y-92926892D01*
X135367690Y-93025778D01*
X135152836Y-93169339D01*
X134970119Y-93352056D01*
X134826558Y-93566910D01*
X134757949Y-93732547D01*
X134757949Y-93313280D01*
X134749612Y-93228632D01*
X134724921Y-93147238D01*
X134684826Y-93072224D01*
X134630866Y-93006474D01*
X134565116Y-92952514D01*
X134490102Y-92912419D01*
X134408708Y-92887728D01*
X134324060Y-92879391D01*
X133033670Y-92879391D01*
X132352764Y-92198485D01*
X132332971Y-92174367D01*
X132236767Y-92095415D01*
X132127008Y-92036748D01*
X132007913Y-92000621D01*
X131915096Y-91991479D01*
X131884059Y-91988422D01*
X131853022Y-91991479D01*
X130863473Y-91991479D01*
X130737787Y-91966479D01*
X130608409Y-91966479D01*
X130481516Y-91991719D01*
X130361987Y-92041230D01*
X130254412Y-92113109D01*
X130162928Y-92204593D01*
X130091049Y-92312168D01*
X130041538Y-92431697D01*
X130016298Y-92558590D01*
X130016298Y-92687968D01*
X130041538Y-92814861D01*
X130091049Y-92934390D01*
X130162928Y-93041965D01*
X130254412Y-93133449D01*
X130361987Y-93205328D01*
X130481516Y-93254839D01*
X130608409Y-93280079D01*
X130737787Y-93280079D01*
X130863473Y-93255079D01*
X131622360Y-93255079D01*
X132140171Y-93772890D01*
X132140171Y-95063280D01*
X132148508Y-95147928D01*
X132173199Y-95229322D01*
X132213294Y-95304336D01*
X132267254Y-95370086D01*
X132333004Y-95424046D01*
X132408018Y-95464141D01*
X132425236Y-95469364D01*
X132286558Y-95676910D01*
X132187672Y-95915642D01*
X132137260Y-96169079D01*
X132137260Y-96427481D01*
X132187672Y-96680918D01*
X132286558Y-96919650D01*
X132430119Y-97134504D01*
X132612836Y-97317221D01*
X132827690Y-97460782D01*
X133066422Y-97559668D01*
X133319859Y-97610080D01*
X133578261Y-97610080D01*
X133831698Y-97559668D01*
X133921269Y-97522566D01*
X134783223Y-98384521D01*
X117422060Y-98384521D01*
X113705646Y-94668109D01*
X113742748Y-94578538D01*
X113793160Y-94325101D01*
X113793160Y-94066699D01*
X113742748Y-93813262D01*
X113643862Y-93574530D01*
X113500301Y-93359676D01*
X113317584Y-93176959D01*
X113102730Y-93033398D01*
X112863998Y-92934512D01*
X112855382Y-92932798D01*
X115082726Y-90705455D01*
X140865162Y-90705455D01*
X137300860Y-94269758D01*
G36*
X176059311Y-93783050D02*
G01*
X176059311Y-95073440D01*
X176067648Y-95158088D01*
X176092339Y-95239482D01*
X176132434Y-95314496D01*
X176186394Y-95380246D01*
X176252144Y-95434206D01*
X176327158Y-95474301D01*
X176344376Y-95479524D01*
X176205698Y-95687070D01*
X176106812Y-95925802D01*
X176056400Y-96179239D01*
X176056400Y-96437641D01*
X176106812Y-96691078D01*
X176205698Y-96929810D01*
X176349259Y-97144664D01*
X176531976Y-97327381D01*
X176746830Y-97470942D01*
X176985562Y-97569828D01*
X177238999Y-97620240D01*
X177497401Y-97620240D01*
X177750838Y-97569828D01*
X177840408Y-97532727D01*
X178032182Y-97724501D01*
X172709115Y-97724501D01*
X172704658Y-97702094D01*
X172655147Y-97582565D01*
X172583268Y-97474990D01*
X172491784Y-97383506D01*
X172384209Y-97311627D01*
X172264680Y-97262116D01*
X172137787Y-97236876D01*
X172008409Y-97236876D01*
X171881516Y-97262116D01*
X171761987Y-97311627D01*
X171654412Y-97383506D01*
X171562928Y-97474990D01*
X171491049Y-97582565D01*
X171441538Y-97702094D01*
X171416298Y-97828987D01*
X171416298Y-97958365D01*
X171435422Y-98054511D01*
X158212850Y-98054511D01*
X156931367Y-96773029D01*
X156968468Y-96683458D01*
X157018880Y-96430021D01*
X157018880Y-96171619D01*
X156968468Y-95918182D01*
X156869582Y-95679450D01*
X156726021Y-95464596D01*
X156543304Y-95281879D01*
X156489338Y-95245820D01*
X156543304Y-95209761D01*
X156726021Y-95027044D01*
X156869582Y-94812190D01*
X156968468Y-94573458D01*
X157018880Y-94320021D01*
X157018880Y-94061619D01*
X156968468Y-93808182D01*
X156887463Y-93612619D01*
X175888880Y-93612619D01*
X176059311Y-93783050D01*
G37*
X176059311Y-93783050D02*
X176059311Y-95073440D01*
X176067648Y-95158088D01*
X176092339Y-95239482D01*
X176132434Y-95314496D01*
X176186394Y-95380246D01*
X176252144Y-95434206D01*
X176327158Y-95474301D01*
X176344376Y-95479524D01*
X176205698Y-95687070D01*
X176106812Y-95925802D01*
X176056400Y-96179239D01*
X176056400Y-96437641D01*
X176106812Y-96691078D01*
X176205698Y-96929810D01*
X176349259Y-97144664D01*
X176531976Y-97327381D01*
X176746830Y-97470942D01*
X176985562Y-97569828D01*
X177238999Y-97620240D01*
X177497401Y-97620240D01*
X177750838Y-97569828D01*
X177840408Y-97532727D01*
X178032182Y-97724501D01*
X172709115Y-97724501D01*
X172704658Y-97702094D01*
X172655147Y-97582565D01*
X172583268Y-97474990D01*
X172491784Y-97383506D01*
X172384209Y-97311627D01*
X172264680Y-97262116D01*
X172137787Y-97236876D01*
X172008409Y-97236876D01*
X171881516Y-97262116D01*
X171761987Y-97311627D01*
X171654412Y-97383506D01*
X171562928Y-97474990D01*
X171491049Y-97582565D01*
X171441538Y-97702094D01*
X171416298Y-97828987D01*
X171416298Y-97958365D01*
X171435422Y-98054511D01*
X158212850Y-98054511D01*
X156931367Y-96773029D01*
X156968468Y-96683458D01*
X157018880Y-96430021D01*
X157018880Y-96171619D01*
X156968468Y-95918182D01*
X156869582Y-95679450D01*
X156726021Y-95464596D01*
X156543304Y-95281879D01*
X156489338Y-95245820D01*
X156543304Y-95209761D01*
X156726021Y-95027044D01*
X156869582Y-94812190D01*
X156968468Y-94573458D01*
X157018880Y-94320021D01*
X157018880Y-94061619D01*
X156968468Y-93808182D01*
X156887463Y-93612619D01*
X175888880Y-93612619D01*
X176059311Y-93783050D01*
G36*
X151905692Y-95918182D02*
G01*
X151855280Y-96171619D01*
X151855280Y-96430021D01*
X151905692Y-96683458D01*
X151942793Y-96773028D01*
X150753947Y-97961876D01*
X149528921Y-97961876D01*
X149676218Y-97891717D01*
X149909567Y-97717664D01*
X150104476Y-97501431D01*
X150253455Y-97251328D01*
X150350779Y-96976967D01*
X150230112Y-96747076D01*
X149036298Y-96747076D01*
X149036298Y-96767076D01*
X148782298Y-96767076D01*
X148782298Y-96747076D01*
X148762298Y-96747076D01*
X148762298Y-96493076D01*
X148782298Y-96493076D01*
X148782298Y-96473076D01*
X149036298Y-96473076D01*
X149036298Y-96493076D01*
X150230112Y-96493076D01*
X150350779Y-96263185D01*
X150253455Y-95988824D01*
X150195707Y-95891877D01*
X151916588Y-95891877D01*
X151905692Y-95918182D01*
G37*
X151905692Y-95918182D02*
X151855280Y-96171619D01*
X151855280Y-96430021D01*
X151905692Y-96683458D01*
X151942793Y-96773028D01*
X150753947Y-97961876D01*
X149528921Y-97961876D01*
X149676218Y-97891717D01*
X149909567Y-97717664D01*
X150104476Y-97501431D01*
X150253455Y-97251328D01*
X150350779Y-96976967D01*
X150230112Y-96747076D01*
X149036298Y-96747076D01*
X149036298Y-96767076D01*
X148782298Y-96767076D01*
X148782298Y-96747076D01*
X148762298Y-96747076D01*
X148762298Y-96493076D01*
X148782298Y-96493076D01*
X148782298Y-96473076D01*
X149036298Y-96473076D01*
X149036298Y-96493076D01*
X150230112Y-96493076D01*
X150350779Y-96263185D01*
X150253455Y-95988824D01*
X150195707Y-95891877D01*
X151916588Y-95891877D01*
X151905692Y-95918182D01*
G36*
X191579428Y-96660920D02*
G01*
X191596087Y-96681219D01*
X191677064Y-96747675D01*
X191769450Y-96797056D01*
X191869695Y-96827465D01*
X191928532Y-96833260D01*
X191973946Y-96837733D01*
X192000070Y-96835160D01*
X198286917Y-96835160D01*
X198324018Y-96924730D01*
X198467579Y-97139584D01*
X198650296Y-97322301D01*
X198865150Y-97465862D01*
X199103882Y-97564748D01*
X199357319Y-97615160D01*
X199615721Y-97615160D01*
X199869158Y-97564748D01*
X200107890Y-97465862D01*
X200322744Y-97322301D01*
X200505461Y-97139584D01*
X200649022Y-96924730D01*
X200747908Y-96685998D01*
X200756520Y-96642703D01*
X200765132Y-96685998D01*
X200864018Y-96924730D01*
X201007579Y-97139584D01*
X201190296Y-97322301D01*
X201405150Y-97465862D01*
X201643882Y-97564748D01*
X201897319Y-97615160D01*
X202155721Y-97615160D01*
X202409158Y-97564748D01*
X202498729Y-97527647D01*
X202695583Y-97724501D01*
X188629497Y-97724501D01*
X188682439Y-97648184D01*
X186458860Y-95424605D01*
X184235281Y-97648184D01*
X184288223Y-97724501D01*
X181194350Y-97724501D01*
X181375756Y-97543095D01*
X181396060Y-97526432D01*
X181462516Y-97445455D01*
X181511897Y-97353069D01*
X181542306Y-97252824D01*
X181550001Y-97174697D01*
X181552574Y-97148573D01*
X181550001Y-97122450D01*
X181550001Y-96449210D01*
X183055632Y-94943580D01*
X183026039Y-95237222D01*
X183090483Y-95907082D01*
X183284371Y-96551498D01*
X183600254Y-97145706D01*
X183608894Y-97158640D01*
X184055676Y-97468579D01*
X186279255Y-95245000D01*
X186265113Y-95230858D01*
X186444718Y-95051253D01*
X186458860Y-95065395D01*
X186473003Y-95051253D01*
X186652608Y-95230858D01*
X186638465Y-95245000D01*
X188862044Y-97468579D01*
X189308826Y-97158640D01*
X189627397Y-96565870D01*
X189824203Y-95922339D01*
X189891681Y-95252778D01*
X189861918Y-94943410D01*
X191579428Y-96660920D01*
G37*
X191579428Y-96660920D02*
X191596087Y-96681219D01*
X191677064Y-96747675D01*
X191769450Y-96797056D01*
X191869695Y-96827465D01*
X191928532Y-96833260D01*
X191973946Y-96837733D01*
X192000070Y-96835160D01*
X198286917Y-96835160D01*
X198324018Y-96924730D01*
X198467579Y-97139584D01*
X198650296Y-97322301D01*
X198865150Y-97465862D01*
X199103882Y-97564748D01*
X199357319Y-97615160D01*
X199615721Y-97615160D01*
X199869158Y-97564748D01*
X200107890Y-97465862D01*
X200322744Y-97322301D01*
X200505461Y-97139584D01*
X200649022Y-96924730D01*
X200747908Y-96685998D01*
X200756520Y-96642703D01*
X200765132Y-96685998D01*
X200864018Y-96924730D01*
X201007579Y-97139584D01*
X201190296Y-97322301D01*
X201405150Y-97465862D01*
X201643882Y-97564748D01*
X201897319Y-97615160D01*
X202155721Y-97615160D01*
X202409158Y-97564748D01*
X202498729Y-97527647D01*
X202695583Y-97724501D01*
X188629497Y-97724501D01*
X188682439Y-97648184D01*
X186458860Y-95424605D01*
X184235281Y-97648184D01*
X184288223Y-97724501D01*
X181194350Y-97724501D01*
X181375756Y-97543095D01*
X181396060Y-97526432D01*
X181462516Y-97445455D01*
X181511897Y-97353069D01*
X181542306Y-97252824D01*
X181550001Y-97174697D01*
X181552574Y-97148573D01*
X181550001Y-97122450D01*
X181550001Y-96449210D01*
X183055632Y-94943580D01*
X183026039Y-95237222D01*
X183090483Y-95907082D01*
X183284371Y-96551498D01*
X183600254Y-97145706D01*
X183608894Y-97158640D01*
X184055676Y-97468579D01*
X186279255Y-95245000D01*
X186265113Y-95230858D01*
X186444718Y-95051253D01*
X186458860Y-95065395D01*
X186473003Y-95051253D01*
X186652608Y-95230858D01*
X186638465Y-95245000D01*
X188862044Y-97468579D01*
X189308826Y-97158640D01*
X189627397Y-96565870D01*
X189824203Y-95922339D01*
X189891681Y-95252778D01*
X189861918Y-94943410D01*
X191579428Y-96660920D01*
G36*
X205384804Y-96660920D02*
G01*
X205401463Y-96681219D01*
X205482440Y-96747675D01*
X205560804Y-96789561D01*
X205574826Y-96797056D01*
X205675071Y-96827465D01*
X205779321Y-96837733D01*
X205805445Y-96835160D01*
X220389997Y-96835160D01*
X220427098Y-96924730D01*
X220570659Y-97139584D01*
X220753376Y-97322301D01*
X220812604Y-97361876D01*
X203837115Y-97361876D01*
X203250807Y-96775569D01*
X203287908Y-96685998D01*
X203338320Y-96432561D01*
X203338320Y-96174159D01*
X203287908Y-95920722D01*
X203189022Y-95681990D01*
X203045461Y-95467136D01*
X202862744Y-95284419D01*
X202808778Y-95248360D01*
X202862744Y-95212301D01*
X203045461Y-95029584D01*
X203189022Y-94814730D01*
X203287908Y-94575998D01*
X203289895Y-94566010D01*
X205384804Y-96660920D01*
G37*
X205384804Y-96660920D02*
X205401463Y-96681219D01*
X205482440Y-96747675D01*
X205560804Y-96789561D01*
X205574826Y-96797056D01*
X205675071Y-96827465D01*
X205779321Y-96837733D01*
X205805445Y-96835160D01*
X220389997Y-96835160D01*
X220427098Y-96924730D01*
X220570659Y-97139584D01*
X220753376Y-97322301D01*
X220812604Y-97361876D01*
X203837115Y-97361876D01*
X203250807Y-96775569D01*
X203287908Y-96685998D01*
X203338320Y-96432561D01*
X203338320Y-96174159D01*
X203287908Y-95920722D01*
X203189022Y-95681990D01*
X203045461Y-95467136D01*
X202862744Y-95284419D01*
X202808778Y-95248360D01*
X202862744Y-95212301D01*
X203045461Y-95029584D01*
X203189022Y-94814730D01*
X203287908Y-94575998D01*
X203289895Y-94566010D01*
X205384804Y-96660920D01*
G36*
X150735300Y-93786876D02*
G01*
X150157889Y-93786876D01*
X150141839Y-93706189D01*
X150045214Y-93472916D01*
X149904937Y-93262976D01*
X149726398Y-93084437D01*
X149516458Y-92944160D01*
X149283185Y-92847535D01*
X149035544Y-92798276D01*
X148783052Y-92798276D01*
X148535411Y-92847535D01*
X148302138Y-92944160D01*
X148092198Y-93084437D01*
X147913659Y-93262976D01*
X147773382Y-93472916D01*
X147676757Y-93706189D01*
X147639298Y-93894508D01*
X147601839Y-93706189D01*
X147505214Y-93472916D01*
X147364937Y-93262976D01*
X147186398Y-93084437D01*
X146976458Y-92944160D01*
X146743185Y-92847535D01*
X146495544Y-92798276D01*
X146243052Y-92798276D01*
X145995411Y-92847535D01*
X145762138Y-92944160D01*
X145552198Y-93084437D01*
X145373659Y-93262976D01*
X145233382Y-93472916D01*
X145136757Y-93706189D01*
X145113187Y-93824683D01*
X145113187Y-93230076D01*
X145104850Y-93145428D01*
X145080159Y-93064034D01*
X145040064Y-92989020D01*
X144986104Y-92923270D01*
X144920354Y-92869310D01*
X144845340Y-92829215D01*
X144763946Y-92804524D01*
X144679298Y-92796187D01*
X142979298Y-92796187D01*
X142894650Y-92804524D01*
X142813256Y-92829215D01*
X142738242Y-92869310D01*
X142672492Y-92923270D01*
X142618532Y-92989020D01*
X142578437Y-93064034D01*
X142553746Y-93145428D01*
X142545409Y-93230076D01*
X142545409Y-94628277D01*
X142537734Y-94628277D01*
X142506697Y-94625220D01*
X142475660Y-94628277D01*
X142382843Y-94637419D01*
X142263748Y-94673546D01*
X142153989Y-94732213D01*
X142057785Y-94811165D01*
X142037997Y-94835277D01*
X140504898Y-96368377D01*
X140504898Y-93414323D01*
X140637107Y-93359561D01*
X140756965Y-93279474D01*
X140858896Y-93177543D01*
X140938983Y-93057685D01*
X140994147Y-92924506D01*
X141022270Y-92783124D01*
X141022270Y-92638972D01*
X140994147Y-92497590D01*
X140938983Y-92364411D01*
X140858896Y-92244553D01*
X140809203Y-92194860D01*
X142018598Y-90985465D01*
X153536710Y-90985465D01*
X150735300Y-93786876D01*
G37*
X150735300Y-93786876D02*
X150157889Y-93786876D01*
X150141839Y-93706189D01*
X150045214Y-93472916D01*
X149904937Y-93262976D01*
X149726398Y-93084437D01*
X149516458Y-92944160D01*
X149283185Y-92847535D01*
X149035544Y-92798276D01*
X148783052Y-92798276D01*
X148535411Y-92847535D01*
X148302138Y-92944160D01*
X148092198Y-93084437D01*
X147913659Y-93262976D01*
X147773382Y-93472916D01*
X147676757Y-93706189D01*
X147639298Y-93894508D01*
X147601839Y-93706189D01*
X147505214Y-93472916D01*
X147364937Y-93262976D01*
X147186398Y-93084437D01*
X146976458Y-92944160D01*
X146743185Y-92847535D01*
X146495544Y-92798276D01*
X146243052Y-92798276D01*
X145995411Y-92847535D01*
X145762138Y-92944160D01*
X145552198Y-93084437D01*
X145373659Y-93262976D01*
X145233382Y-93472916D01*
X145136757Y-93706189D01*
X145113187Y-93824683D01*
X145113187Y-93230076D01*
X145104850Y-93145428D01*
X145080159Y-93064034D01*
X145040064Y-92989020D01*
X144986104Y-92923270D01*
X144920354Y-92869310D01*
X144845340Y-92829215D01*
X144763946Y-92804524D01*
X144679298Y-92796187D01*
X142979298Y-92796187D01*
X142894650Y-92804524D01*
X142813256Y-92829215D01*
X142738242Y-92869310D01*
X142672492Y-92923270D01*
X142618532Y-92989020D01*
X142578437Y-93064034D01*
X142553746Y-93145428D01*
X142545409Y-93230076D01*
X142545409Y-94628277D01*
X142537734Y-94628277D01*
X142506697Y-94625220D01*
X142475660Y-94628277D01*
X142382843Y-94637419D01*
X142263748Y-94673546D01*
X142153989Y-94732213D01*
X142057785Y-94811165D01*
X142037997Y-94835277D01*
X140504898Y-96368377D01*
X140504898Y-93414323D01*
X140637107Y-93359561D01*
X140756965Y-93279474D01*
X140858896Y-93177543D01*
X140938983Y-93057685D01*
X140994147Y-92924506D01*
X141022270Y-92783124D01*
X141022270Y-92638972D01*
X140994147Y-92497590D01*
X140938983Y-92364411D01*
X140858896Y-92244553D01*
X140809203Y-92194860D01*
X142018598Y-90985465D01*
X153536710Y-90985465D01*
X150735300Y-93786876D01*
G36*
X211441538Y-92885257D02*
G01*
X211491049Y-93004786D01*
X211562928Y-93112361D01*
X211654412Y-93203845D01*
X211761987Y-93275724D01*
X211881516Y-93325235D01*
X212008409Y-93350475D01*
X212137787Y-93350475D01*
X212264680Y-93325235D01*
X212384209Y-93275724D01*
X212491784Y-93203845D01*
X212583268Y-93112361D01*
X212591203Y-93100485D01*
X220341444Y-93100485D01*
X220313739Y-93152318D01*
X220289048Y-93233712D01*
X220280711Y-93318360D01*
X220280711Y-95068360D01*
X220289048Y-95153008D01*
X220313739Y-95234402D01*
X220353834Y-95309416D01*
X220407794Y-95375166D01*
X220473544Y-95429126D01*
X220548558Y-95469221D01*
X220565776Y-95474444D01*
X220427098Y-95681990D01*
X220389997Y-95771560D01*
X205999600Y-95771560D01*
X202998514Y-92770475D01*
X211418707Y-92770475D01*
X211441538Y-92885257D01*
G37*
X211441538Y-92885257D02*
X211491049Y-93004786D01*
X211562928Y-93112361D01*
X211654412Y-93203845D01*
X211761987Y-93275724D01*
X211881516Y-93325235D01*
X212008409Y-93350475D01*
X212137787Y-93350475D01*
X212264680Y-93325235D01*
X212384209Y-93275724D01*
X212491784Y-93203845D01*
X212583268Y-93112361D01*
X212591203Y-93100485D01*
X220341444Y-93100485D01*
X220313739Y-93152318D01*
X220289048Y-93233712D01*
X220280711Y-93318360D01*
X220280711Y-95068360D01*
X220289048Y-95153008D01*
X220313739Y-95234402D01*
X220353834Y-95309416D01*
X220407794Y-95375166D01*
X220473544Y-95429126D01*
X220548558Y-95469221D01*
X220565776Y-95474444D01*
X220427098Y-95681990D01*
X220389997Y-95771560D01*
X205999600Y-95771560D01*
X202998514Y-92770475D01*
X211418707Y-92770475D01*
X211441538Y-92885257D01*
G36*
X219762928Y-91274990D02*
G01*
X219691049Y-91382565D01*
X219641538Y-91502094D01*
X219616298Y-91628987D01*
X219616298Y-91706875D01*
X193154223Y-91706875D01*
X193128099Y-91704302D01*
X193101975Y-91706875D01*
X193023848Y-91714570D01*
X192923603Y-91744979D01*
X192831217Y-91794360D01*
X192750240Y-91860816D01*
X192733585Y-91881110D01*
X192570225Y-92044471D01*
X192481516Y-92062116D01*
X192361987Y-92111627D01*
X192254412Y-92183506D01*
X192162928Y-92274990D01*
X192091049Y-92382565D01*
X192041538Y-92502094D01*
X192016298Y-92628987D01*
X192016298Y-92758365D01*
X192041538Y-92885258D01*
X192091049Y-93004787D01*
X192162928Y-93112362D01*
X192254412Y-93203846D01*
X192361987Y-93275725D01*
X192481516Y-93325236D01*
X192608409Y-93350476D01*
X192737787Y-93350476D01*
X192864680Y-93325236D01*
X192984209Y-93275725D01*
X193091784Y-93203846D01*
X193183268Y-93112362D01*
X193255147Y-93004787D01*
X193304658Y-92885258D01*
X193322303Y-92796549D01*
X193348377Y-92770475D01*
X201054524Y-92770475D01*
X200731137Y-93093863D01*
X200722286Y-93077304D01*
X200668326Y-93011554D01*
X200602576Y-92957594D01*
X200527562Y-92917499D01*
X200446168Y-92892808D01*
X200361520Y-92884471D01*
X198611520Y-92884471D01*
X198526872Y-92892808D01*
X198445478Y-92917499D01*
X198370464Y-92957594D01*
X198304714Y-93011554D01*
X198250754Y-93077304D01*
X198210659Y-93152318D01*
X198185968Y-93233712D01*
X198177631Y-93318360D01*
X198177631Y-95068360D01*
X198185968Y-95153008D01*
X198210659Y-95234402D01*
X198250754Y-95309416D01*
X198304714Y-95375166D01*
X198370464Y-95429126D01*
X198445478Y-95469221D01*
X198462696Y-95474444D01*
X198324018Y-95681990D01*
X198286917Y-95771560D01*
X192194224Y-95771560D01*
X188298807Y-91876144D01*
X188282144Y-91855840D01*
X188201167Y-91789384D01*
X188108781Y-91740003D01*
X188008536Y-91709594D01*
X187930409Y-91701899D01*
X187930408Y-91701899D01*
X187904285Y-91699326D01*
X187878162Y-91701899D01*
X185039558Y-91701899D01*
X185013434Y-91699326D01*
X184962913Y-91704302D01*
X184909184Y-91709594D01*
X184808939Y-91740003D01*
X184716553Y-91789384D01*
X184635576Y-91855840D01*
X184618922Y-91876133D01*
X180965473Y-95529584D01*
X180927141Y-95472216D01*
X180744424Y-95289499D01*
X180690458Y-95253440D01*
X180744424Y-95217381D01*
X180927141Y-95034664D01*
X181070702Y-94819810D01*
X181169588Y-94581078D01*
X181220000Y-94327641D01*
X181220000Y-94069239D01*
X181169588Y-93815802D01*
X181070702Y-93577070D01*
X180927141Y-93362216D01*
X180744424Y-93179499D01*
X180529570Y-93035938D01*
X180290838Y-92937052D01*
X180037401Y-92886640D01*
X179778999Y-92886640D01*
X179525562Y-92937052D01*
X179286830Y-93035938D01*
X179071976Y-93179499D01*
X178889259Y-93362216D01*
X178745698Y-93577070D01*
X178677089Y-93742707D01*
X178677089Y-93323440D01*
X178668752Y-93238792D01*
X178644061Y-93157398D01*
X178603966Y-93082384D01*
X178550006Y-93016634D01*
X178484256Y-92962674D01*
X178409242Y-92922579D01*
X178327848Y-92897888D01*
X178243200Y-92889551D01*
X176952810Y-92889551D01*
X176619284Y-92556025D01*
X176599491Y-92531907D01*
X176503287Y-92452955D01*
X176393528Y-92394288D01*
X176274433Y-92358161D01*
X176181616Y-92349019D01*
X176150579Y-92345962D01*
X176119542Y-92349019D01*
X154408118Y-92349019D01*
X154377081Y-92345962D01*
X154253227Y-92358161D01*
X154134131Y-92394288D01*
X154099777Y-92412651D01*
X154024373Y-92452955D01*
X153928169Y-92531907D01*
X153908380Y-92556020D01*
X153582469Y-92881931D01*
X153073690Y-92881931D01*
X154690146Y-91265475D01*
X219772443Y-91265475D01*
X219762928Y-91274990D01*
G37*
X219762928Y-91274990D02*
X219691049Y-91382565D01*
X219641538Y-91502094D01*
X219616298Y-91628987D01*
X219616298Y-91706875D01*
X193154223Y-91706875D01*
X193128099Y-91704302D01*
X193101975Y-91706875D01*
X193023848Y-91714570D01*
X192923603Y-91744979D01*
X192831217Y-91794360D01*
X192750240Y-91860816D01*
X192733585Y-91881110D01*
X192570225Y-92044471D01*
X192481516Y-92062116D01*
X192361987Y-92111627D01*
X192254412Y-92183506D01*
X192162928Y-92274990D01*
X192091049Y-92382565D01*
X192041538Y-92502094D01*
X192016298Y-92628987D01*
X192016298Y-92758365D01*
X192041538Y-92885258D01*
X192091049Y-93004787D01*
X192162928Y-93112362D01*
X192254412Y-93203846D01*
X192361987Y-93275725D01*
X192481516Y-93325236D01*
X192608409Y-93350476D01*
X192737787Y-93350476D01*
X192864680Y-93325236D01*
X192984209Y-93275725D01*
X193091784Y-93203846D01*
X193183268Y-93112362D01*
X193255147Y-93004787D01*
X193304658Y-92885258D01*
X193322303Y-92796549D01*
X193348377Y-92770475D01*
X201054524Y-92770475D01*
X200731137Y-93093863D01*
X200722286Y-93077304D01*
X200668326Y-93011554D01*
X200602576Y-92957594D01*
X200527562Y-92917499D01*
X200446168Y-92892808D01*
X200361520Y-92884471D01*
X198611520Y-92884471D01*
X198526872Y-92892808D01*
X198445478Y-92917499D01*
X198370464Y-92957594D01*
X198304714Y-93011554D01*
X198250754Y-93077304D01*
X198210659Y-93152318D01*
X198185968Y-93233712D01*
X198177631Y-93318360D01*
X198177631Y-95068360D01*
X198185968Y-95153008D01*
X198210659Y-95234402D01*
X198250754Y-95309416D01*
X198304714Y-95375166D01*
X198370464Y-95429126D01*
X198445478Y-95469221D01*
X198462696Y-95474444D01*
X198324018Y-95681990D01*
X198286917Y-95771560D01*
X192194224Y-95771560D01*
X188298807Y-91876144D01*
X188282144Y-91855840D01*
X188201167Y-91789384D01*
X188108781Y-91740003D01*
X188008536Y-91709594D01*
X187930409Y-91701899D01*
X187930408Y-91701899D01*
X187904285Y-91699326D01*
X187878162Y-91701899D01*
X185039558Y-91701899D01*
X185013434Y-91699326D01*
X184962913Y-91704302D01*
X184909184Y-91709594D01*
X184808939Y-91740003D01*
X184716553Y-91789384D01*
X184635576Y-91855840D01*
X184618922Y-91876133D01*
X180965473Y-95529584D01*
X180927141Y-95472216D01*
X180744424Y-95289499D01*
X180690458Y-95253440D01*
X180744424Y-95217381D01*
X180927141Y-95034664D01*
X181070702Y-94819810D01*
X181169588Y-94581078D01*
X181220000Y-94327641D01*
X181220000Y-94069239D01*
X181169588Y-93815802D01*
X181070702Y-93577070D01*
X180927141Y-93362216D01*
X180744424Y-93179499D01*
X180529570Y-93035938D01*
X180290838Y-92937052D01*
X180037401Y-92886640D01*
X179778999Y-92886640D01*
X179525562Y-92937052D01*
X179286830Y-93035938D01*
X179071976Y-93179499D01*
X178889259Y-93362216D01*
X178745698Y-93577070D01*
X178677089Y-93742707D01*
X178677089Y-93323440D01*
X178668752Y-93238792D01*
X178644061Y-93157398D01*
X178603966Y-93082384D01*
X178550006Y-93016634D01*
X178484256Y-92962674D01*
X178409242Y-92922579D01*
X178327848Y-92897888D01*
X178243200Y-92889551D01*
X176952810Y-92889551D01*
X176619284Y-92556025D01*
X176599491Y-92531907D01*
X176503287Y-92452955D01*
X176393528Y-92394288D01*
X176274433Y-92358161D01*
X176181616Y-92349019D01*
X176150579Y-92345962D01*
X176119542Y-92349019D01*
X154408118Y-92349019D01*
X154377081Y-92345962D01*
X154253227Y-92358161D01*
X154134131Y-92394288D01*
X154099777Y-92412651D01*
X154024373Y-92452955D01*
X153928169Y-92531907D01*
X153908380Y-92556020D01*
X153582469Y-92881931D01*
X153073690Y-92881931D01*
X154690146Y-91265475D01*
X219772443Y-91265475D01*
X219762928Y-91274990D01*
G36*
X225985665Y-93993677D02*
G01*
X225968332Y-93995384D01*
X225887274Y-94019973D01*
X225868088Y-94025793D01*
X225775702Y-94075174D01*
X225694725Y-94141630D01*
X225678070Y-94161924D01*
X225422520Y-94417475D01*
X225441400Y-94322561D01*
X225441400Y-94064159D01*
X225390988Y-93810722D01*
X225292102Y-93571990D01*
X225148541Y-93357136D01*
X224965824Y-93174419D01*
X224855174Y-93100485D01*
X225092474Y-93100485D01*
X225985665Y-93993677D01*
G37*
X225985665Y-93993677D02*
X225968332Y-93995384D01*
X225887274Y-94019973D01*
X225868088Y-94025793D01*
X225775702Y-94075174D01*
X225694725Y-94141630D01*
X225678070Y-94161924D01*
X225422520Y-94417475D01*
X225441400Y-94322561D01*
X225441400Y-94064159D01*
X225390988Y-93810722D01*
X225292102Y-93571990D01*
X225148541Y-93357136D01*
X224965824Y-93174419D01*
X224855174Y-93100485D01*
X225092474Y-93100485D01*
X225985665Y-93993677D01*
G36*
X223293376Y-93174419D02*
G01*
X223110659Y-93357136D01*
X222967098Y-93571990D01*
X222898489Y-93737627D01*
X222898489Y-93318360D01*
X222890152Y-93233712D01*
X222865461Y-93152318D01*
X222837756Y-93100485D01*
X223404026Y-93100485D01*
X223293376Y-93174419D01*
G37*
X223293376Y-93174419D02*
X223110659Y-93357136D01*
X222967098Y-93571990D01*
X222898489Y-93737627D01*
X222898489Y-93318360D01*
X222890152Y-93233712D01*
X222865461Y-93152318D01*
X222837756Y-93100485D01*
X223404026Y-93100485D01*
X223293376Y-93174419D01*
M02*
